G04 #@! TF.GenerationSoftware,KiCad,Pcbnew,(5.1.0-1390-gc38e9d5c4)*
G04 #@! TF.CreationDate,2019-08-14T17:07:38-04:00*
G04 #@! TF.ProjectId,stm32-nema17-servo,73746d33-322d-46e6-956d-6131372d7365,rev?*
G04 #@! TF.SameCoordinates,Original*
G04 #@! TF.FileFunction,Legend,Top*
G04 #@! TF.FilePolarity,Positive*
%FSLAX46Y46*%
G04 Gerber Fmt 4.6, Leading zero omitted, Abs format (unit mm)*
G04 Created by KiCad (PCBNEW (5.1.0-1390-gc38e9d5c4)) date 2019-08-14 17:07:38*
%MOMM*%
%LPD*%
G04 APERTURE LIST*
%ADD10C,0.250000*%
%ADD11C,0.150000*%
%ADD12C,0.200000*%
%ADD13C,0.120000*%
%ADD14C,0.100000*%
G04 APERTURE END LIST*
D10*
X163378571Y-127552380D02*
X163378571Y-125647619D01*
D11*
X162185714Y-101242857D02*
X162271428Y-101271428D01*
X162414285Y-101271428D01*
X162471428Y-101242857D01*
X162500000Y-101214285D01*
X162528571Y-101157142D01*
X162528571Y-101100000D01*
X162500000Y-101042857D01*
X162471428Y-101014285D01*
X162414285Y-100985714D01*
X162300000Y-100957142D01*
X162242857Y-100928571D01*
X162214285Y-100900000D01*
X162185714Y-100842857D01*
X162185714Y-100785714D01*
X162214285Y-100728571D01*
X162242857Y-100700000D01*
X162300000Y-100671428D01*
X162442857Y-100671428D01*
X162528571Y-100700000D01*
X162728571Y-100671428D02*
X162871428Y-101271428D01*
X162985714Y-100842857D01*
X163100000Y-101271428D01*
X163242857Y-100671428D01*
X163471428Y-101271428D02*
X163471428Y-100671428D01*
X163614285Y-100671428D01*
X163700000Y-100700000D01*
X163757142Y-100757142D01*
X163785714Y-100814285D01*
X163814285Y-100928571D01*
X163814285Y-101014285D01*
X163785714Y-101128571D01*
X163757142Y-101185714D01*
X163700000Y-101242857D01*
X163614285Y-101271428D01*
X163471428Y-101271428D01*
X160642857Y-129771428D02*
X160842857Y-130371428D01*
X161042857Y-129771428D01*
X161242857Y-130371428D02*
X161242857Y-129771428D01*
X161528571Y-130371428D02*
X161528571Y-129771428D01*
X161871428Y-130371428D01*
X161871428Y-129771428D01*
D10*
X136678571Y-110952380D02*
X136678571Y-109047619D01*
X137630952Y-110000000D02*
X135726190Y-110000000D01*
D11*
X144757142Y-113792857D02*
X144842857Y-113821428D01*
X144985714Y-113821428D01*
X145042857Y-113792857D01*
X145071428Y-113764285D01*
X145100000Y-113707142D01*
X145100000Y-113650000D01*
X145071428Y-113592857D01*
X145042857Y-113564285D01*
X144985714Y-113535714D01*
X144871428Y-113507142D01*
X144814285Y-113478571D01*
X144785714Y-113450000D01*
X144757142Y-113392857D01*
X144757142Y-113335714D01*
X144785714Y-113278571D01*
X144814285Y-113250000D01*
X144871428Y-113221428D01*
X145014285Y-113221428D01*
X145100000Y-113250000D01*
X145271428Y-113221428D02*
X145614285Y-113221428D01*
X145442857Y-113821428D02*
X145442857Y-113221428D01*
X145814285Y-113821428D02*
X145814285Y-113221428D01*
X146014285Y-113650000D01*
X146214285Y-113221428D01*
X146214285Y-113821428D01*
X146442857Y-113221428D02*
X146814285Y-113221428D01*
X146614285Y-113450000D01*
X146700000Y-113450000D01*
X146757142Y-113478571D01*
X146785714Y-113507142D01*
X146814285Y-113564285D01*
X146814285Y-113707142D01*
X146785714Y-113764285D01*
X146757142Y-113792857D01*
X146700000Y-113821428D01*
X146528571Y-113821428D01*
X146471428Y-113792857D01*
X146442857Y-113764285D01*
X147042857Y-113278571D02*
X147071428Y-113250000D01*
X147128571Y-113221428D01*
X147271428Y-113221428D01*
X147328571Y-113250000D01*
X147357142Y-113278571D01*
X147385714Y-113335714D01*
X147385714Y-113392857D01*
X147357142Y-113478571D01*
X147014285Y-113821428D01*
X147385714Y-113821428D01*
X147642857Y-113592857D02*
X148100000Y-113592857D01*
X148385714Y-113821428D02*
X148385714Y-113221428D01*
X148728571Y-113821428D01*
X148728571Y-113221428D01*
X149014285Y-113507142D02*
X149214285Y-113507142D01*
X149300000Y-113821428D02*
X149014285Y-113821428D01*
X149014285Y-113221428D01*
X149300000Y-113221428D01*
X149557142Y-113821428D02*
X149557142Y-113221428D01*
X149757142Y-113650000D01*
X149957142Y-113221428D01*
X149957142Y-113821428D01*
X150214285Y-113650000D02*
X150500000Y-113650000D01*
X150157142Y-113821428D02*
X150357142Y-113221428D01*
X150557142Y-113821428D01*
X151071428Y-113821428D02*
X150728571Y-113821428D01*
X150900000Y-113821428D02*
X150900000Y-113221428D01*
X150842857Y-113307142D01*
X150785714Y-113364285D01*
X150728571Y-113392857D01*
X151271428Y-113221428D02*
X151671428Y-113221428D01*
X151414285Y-113821428D01*
X151900000Y-113592857D02*
X152357142Y-113592857D01*
X152614285Y-113792857D02*
X152700000Y-113821428D01*
X152842857Y-113821428D01*
X152900000Y-113792857D01*
X152928571Y-113764285D01*
X152957142Y-113707142D01*
X152957142Y-113650000D01*
X152928571Y-113592857D01*
X152900000Y-113564285D01*
X152842857Y-113535714D01*
X152728571Y-113507142D01*
X152671428Y-113478571D01*
X152642857Y-113450000D01*
X152614285Y-113392857D01*
X152614285Y-113335714D01*
X152642857Y-113278571D01*
X152671428Y-113250000D01*
X152728571Y-113221428D01*
X152871428Y-113221428D01*
X152957142Y-113250000D01*
X153214285Y-113507142D02*
X153414285Y-113507142D01*
X153500000Y-113821428D02*
X153214285Y-113821428D01*
X153214285Y-113221428D01*
X153500000Y-113221428D01*
X154100000Y-113821428D02*
X153900000Y-113535714D01*
X153757142Y-113821428D02*
X153757142Y-113221428D01*
X153985714Y-113221428D01*
X154042857Y-113250000D01*
X154071428Y-113278571D01*
X154100000Y-113335714D01*
X154100000Y-113421428D01*
X154071428Y-113478571D01*
X154042857Y-113507142D01*
X153985714Y-113535714D01*
X153757142Y-113535714D01*
X154271428Y-113221428D02*
X154471428Y-113821428D01*
X154671428Y-113221428D01*
X154985714Y-113221428D02*
X155100000Y-113221428D01*
X155157142Y-113250000D01*
X155214285Y-113307142D01*
X155242857Y-113421428D01*
X155242857Y-113621428D01*
X155214285Y-113735714D01*
X155157142Y-113792857D01*
X155100000Y-113821428D01*
X154985714Y-113821428D01*
X154928571Y-113792857D01*
X154871428Y-113735714D01*
X154842857Y-113621428D01*
X154842857Y-113421428D01*
X154871428Y-113307142D01*
X154928571Y-113250000D01*
X154985714Y-113221428D01*
X145885714Y-114271428D02*
X146085714Y-114871428D01*
X146285714Y-114271428D01*
X146600000Y-114271428D02*
X146657142Y-114271428D01*
X146714285Y-114300000D01*
X146742857Y-114328571D01*
X146771428Y-114385714D01*
X146800000Y-114500000D01*
X146800000Y-114642857D01*
X146771428Y-114757142D01*
X146742857Y-114814285D01*
X146714285Y-114842857D01*
X146657142Y-114871428D01*
X146600000Y-114871428D01*
X146542857Y-114842857D01*
X146514285Y-114814285D01*
X146485714Y-114757142D01*
X146457142Y-114642857D01*
X146457142Y-114500000D01*
X146485714Y-114385714D01*
X146514285Y-114328571D01*
X146542857Y-114300000D01*
X146600000Y-114271428D01*
X147057142Y-114814285D02*
X147085714Y-114842857D01*
X147057142Y-114871428D01*
X147028571Y-114842857D01*
X147057142Y-114814285D01*
X147057142Y-114871428D01*
X147657142Y-114871428D02*
X147314285Y-114871428D01*
X147485714Y-114871428D02*
X147485714Y-114271428D01*
X147428571Y-114357142D01*
X147371428Y-114414285D01*
X147314285Y-114442857D01*
X148542857Y-115100000D02*
X148514285Y-115071428D01*
X148457142Y-114985714D01*
X148428571Y-114928571D01*
X148400000Y-114842857D01*
X148371428Y-114700000D01*
X148371428Y-114585714D01*
X148400000Y-114442857D01*
X148428571Y-114357142D01*
X148457142Y-114300000D01*
X148514285Y-114214285D01*
X148542857Y-114185714D01*
X149028571Y-114842857D02*
X148971428Y-114871428D01*
X148857142Y-114871428D01*
X148800000Y-114842857D01*
X148771428Y-114814285D01*
X148742857Y-114757142D01*
X148742857Y-114585714D01*
X148771428Y-114528571D01*
X148800000Y-114500000D01*
X148857142Y-114471428D01*
X148971428Y-114471428D01*
X149028571Y-114500000D01*
X149228571Y-115100000D02*
X149257142Y-115071428D01*
X149314285Y-114985714D01*
X149342857Y-114928571D01*
X149371428Y-114842857D01*
X149400000Y-114700000D01*
X149400000Y-114585714D01*
X149371428Y-114442857D01*
X149342857Y-114357142D01*
X149314285Y-114300000D01*
X149257142Y-114214285D01*
X149228571Y-114185714D01*
X150114285Y-114328571D02*
X150142857Y-114300000D01*
X150200000Y-114271428D01*
X150342857Y-114271428D01*
X150400000Y-114300000D01*
X150428571Y-114328571D01*
X150457142Y-114385714D01*
X150457142Y-114442857D01*
X150428571Y-114528571D01*
X150085714Y-114871428D01*
X150457142Y-114871428D01*
X150828571Y-114271428D02*
X150885714Y-114271428D01*
X150942857Y-114300000D01*
X150971428Y-114328571D01*
X151000000Y-114385714D01*
X151028571Y-114500000D01*
X151028571Y-114642857D01*
X151000000Y-114757142D01*
X150971428Y-114814285D01*
X150942857Y-114842857D01*
X150885714Y-114871428D01*
X150828571Y-114871428D01*
X150771428Y-114842857D01*
X150742857Y-114814285D01*
X150714285Y-114757142D01*
X150685714Y-114642857D01*
X150685714Y-114500000D01*
X150714285Y-114385714D01*
X150742857Y-114328571D01*
X150771428Y-114300000D01*
X150828571Y-114271428D01*
X151600000Y-114871428D02*
X151257142Y-114871428D01*
X151428571Y-114871428D02*
X151428571Y-114271428D01*
X151371428Y-114357142D01*
X151314285Y-114414285D01*
X151257142Y-114442857D01*
X151885714Y-114871428D02*
X152000000Y-114871428D01*
X152057142Y-114842857D01*
X152085714Y-114814285D01*
X152142857Y-114728571D01*
X152171428Y-114614285D01*
X152171428Y-114385714D01*
X152142857Y-114328571D01*
X152114285Y-114300000D01*
X152057142Y-114271428D01*
X151942857Y-114271428D01*
X151885714Y-114300000D01*
X151857142Y-114328571D01*
X151828571Y-114385714D01*
X151828571Y-114528571D01*
X151857142Y-114585714D01*
X151885714Y-114614285D01*
X151942857Y-114642857D01*
X152057142Y-114642857D01*
X152114285Y-114614285D01*
X152142857Y-114585714D01*
X152171428Y-114528571D01*
X152428571Y-114642857D02*
X152885714Y-114642857D01*
X153285714Y-114271428D02*
X153342857Y-114271428D01*
X153400000Y-114300000D01*
X153428571Y-114328571D01*
X153457142Y-114385714D01*
X153485714Y-114500000D01*
X153485714Y-114642857D01*
X153457142Y-114757142D01*
X153428571Y-114814285D01*
X153400000Y-114842857D01*
X153342857Y-114871428D01*
X153285714Y-114871428D01*
X153228571Y-114842857D01*
X153200000Y-114814285D01*
X153171428Y-114757142D01*
X153142857Y-114642857D01*
X153142857Y-114500000D01*
X153171428Y-114385714D01*
X153200000Y-114328571D01*
X153228571Y-114300000D01*
X153285714Y-114271428D01*
X153828571Y-114528571D02*
X153771428Y-114500000D01*
X153742857Y-114471428D01*
X153714285Y-114414285D01*
X153714285Y-114385714D01*
X153742857Y-114328571D01*
X153771428Y-114300000D01*
X153828571Y-114271428D01*
X153942857Y-114271428D01*
X154000000Y-114300000D01*
X154028571Y-114328571D01*
X154057142Y-114385714D01*
X154057142Y-114414285D01*
X154028571Y-114471428D01*
X154000000Y-114500000D01*
X153942857Y-114528571D01*
X153828571Y-114528571D01*
X153771428Y-114557142D01*
X153742857Y-114585714D01*
X153714285Y-114642857D01*
X153714285Y-114757142D01*
X153742857Y-114814285D01*
X153771428Y-114842857D01*
X153828571Y-114871428D01*
X153942857Y-114871428D01*
X154000000Y-114842857D01*
X154028571Y-114814285D01*
X154057142Y-114757142D01*
X154057142Y-114642857D01*
X154028571Y-114585714D01*
X154000000Y-114557142D01*
X153942857Y-114528571D01*
X145957142Y-115921428D02*
X145957142Y-115321428D01*
X145957142Y-115892857D02*
X145900000Y-115921428D01*
X145785714Y-115921428D01*
X145728571Y-115892857D01*
X145700000Y-115864285D01*
X145671428Y-115807142D01*
X145671428Y-115635714D01*
X145700000Y-115578571D01*
X145728571Y-115550000D01*
X145785714Y-115521428D01*
X145900000Y-115521428D01*
X145957142Y-115550000D01*
X146500000Y-115521428D02*
X146500000Y-116007142D01*
X146471428Y-116064285D01*
X146442857Y-116092857D01*
X146385714Y-116121428D01*
X146300000Y-116121428D01*
X146242857Y-116092857D01*
X146500000Y-115892857D02*
X146442857Y-115921428D01*
X146328571Y-115921428D01*
X146271428Y-115892857D01*
X146242857Y-115864285D01*
X146214285Y-115807142D01*
X146214285Y-115635714D01*
X146242857Y-115578571D01*
X146271428Y-115550000D01*
X146328571Y-115521428D01*
X146442857Y-115521428D01*
X146500000Y-115550000D01*
X147042857Y-115521428D02*
X147042857Y-115921428D01*
X146785714Y-115521428D02*
X146785714Y-115835714D01*
X146814285Y-115892857D01*
X146871428Y-115921428D01*
X146957142Y-115921428D01*
X147014285Y-115892857D01*
X147042857Y-115864285D01*
X147414285Y-115921428D02*
X147357142Y-115892857D01*
X147328571Y-115835714D01*
X147328571Y-115321428D01*
X147585714Y-115521428D02*
X147728571Y-115921428D01*
X147871428Y-115521428D02*
X147728571Y-115921428D01*
X147671428Y-116064285D01*
X147642857Y-116092857D01*
X147585714Y-116121428D01*
X148357142Y-115921428D02*
X148357142Y-115607142D01*
X148328571Y-115550000D01*
X148271428Y-115521428D01*
X148157142Y-115521428D01*
X148100000Y-115550000D01*
X148357142Y-115892857D02*
X148300000Y-115921428D01*
X148157142Y-115921428D01*
X148100000Y-115892857D01*
X148071428Y-115835714D01*
X148071428Y-115778571D01*
X148100000Y-115721428D01*
X148157142Y-115692857D01*
X148300000Y-115692857D01*
X148357142Y-115664285D01*
X148614285Y-115892857D02*
X148671428Y-115921428D01*
X148785714Y-115921428D01*
X148842857Y-115892857D01*
X148871428Y-115835714D01*
X148871428Y-115807142D01*
X148842857Y-115750000D01*
X148785714Y-115721428D01*
X148700000Y-115721428D01*
X148642857Y-115692857D01*
X148614285Y-115635714D01*
X148614285Y-115607142D01*
X148642857Y-115550000D01*
X148700000Y-115521428D01*
X148785714Y-115521428D01*
X148842857Y-115550000D01*
X149500000Y-115635714D02*
X149471428Y-115607142D01*
X149414285Y-115578571D01*
X149357142Y-115578571D01*
X149300000Y-115607142D01*
X149271428Y-115635714D01*
X149242857Y-115692857D01*
X149242857Y-115750000D01*
X149271428Y-115807142D01*
X149300000Y-115835714D01*
X149357142Y-115864285D01*
X149414285Y-115864285D01*
X149471428Y-115835714D01*
X149500000Y-115807142D01*
X149500000Y-115578571D02*
X149500000Y-115807142D01*
X149528571Y-115835714D01*
X149557142Y-115835714D01*
X149614285Y-115807142D01*
X149642857Y-115750000D01*
X149642857Y-115607142D01*
X149585714Y-115521428D01*
X149500000Y-115464285D01*
X149385714Y-115435714D01*
X149271428Y-115464285D01*
X149185714Y-115521428D01*
X149128571Y-115607142D01*
X149100000Y-115721428D01*
X149128571Y-115835714D01*
X149185714Y-115921428D01*
X149271428Y-115978571D01*
X149385714Y-116007142D01*
X149500000Y-115978571D01*
X149585714Y-115921428D01*
X149900000Y-115921428D02*
X149900000Y-115521428D01*
X149900000Y-115321428D02*
X149871428Y-115350000D01*
X149900000Y-115378571D01*
X149928571Y-115350000D01*
X149900000Y-115321428D01*
X149900000Y-115378571D01*
X150185714Y-115521428D02*
X150185714Y-115921428D01*
X150185714Y-115578571D02*
X150214285Y-115550000D01*
X150271428Y-115521428D01*
X150357142Y-115521428D01*
X150414285Y-115550000D01*
X150442857Y-115607142D01*
X150442857Y-115921428D01*
X150728571Y-115921428D02*
X150728571Y-115521428D01*
X150728571Y-115635714D02*
X150757142Y-115578571D01*
X150785714Y-115550000D01*
X150842857Y-115521428D01*
X150900000Y-115521428D01*
X151185714Y-115921428D02*
X151128571Y-115892857D01*
X151100000Y-115864285D01*
X151071428Y-115807142D01*
X151071428Y-115635714D01*
X151100000Y-115578571D01*
X151128571Y-115550000D01*
X151185714Y-115521428D01*
X151271428Y-115521428D01*
X151328571Y-115550000D01*
X151357142Y-115578571D01*
X151385714Y-115635714D01*
X151385714Y-115807142D01*
X151357142Y-115864285D01*
X151328571Y-115892857D01*
X151271428Y-115921428D01*
X151185714Y-115921428D01*
X151642857Y-115921428D02*
X151642857Y-115321428D01*
X151642857Y-115550000D02*
X151700000Y-115521428D01*
X151814285Y-115521428D01*
X151871428Y-115550000D01*
X151900000Y-115578571D01*
X151928571Y-115635714D01*
X151928571Y-115807142D01*
X151900000Y-115864285D01*
X151871428Y-115892857D01*
X151814285Y-115921428D01*
X151700000Y-115921428D01*
X151642857Y-115892857D01*
X152442857Y-115892857D02*
X152385714Y-115921428D01*
X152271428Y-115921428D01*
X152214285Y-115892857D01*
X152185714Y-115864285D01*
X152157142Y-115807142D01*
X152157142Y-115635714D01*
X152185714Y-115578571D01*
X152214285Y-115550000D01*
X152271428Y-115521428D01*
X152385714Y-115521428D01*
X152442857Y-115550000D01*
X152785714Y-115921428D02*
X152728571Y-115892857D01*
X152700000Y-115864285D01*
X152671428Y-115807142D01*
X152671428Y-115635714D01*
X152700000Y-115578571D01*
X152728571Y-115550000D01*
X152785714Y-115521428D01*
X152871428Y-115521428D01*
X152928571Y-115550000D01*
X152957142Y-115578571D01*
X152985714Y-115635714D01*
X152985714Y-115807142D01*
X152957142Y-115864285D01*
X152928571Y-115892857D01*
X152871428Y-115921428D01*
X152785714Y-115921428D01*
X153242857Y-115864285D02*
X153271428Y-115892857D01*
X153242857Y-115921428D01*
X153214285Y-115892857D01*
X153242857Y-115864285D01*
X153242857Y-115921428D01*
X153785714Y-115921428D02*
X153785714Y-115321428D01*
X153785714Y-115892857D02*
X153728571Y-115921428D01*
X153614285Y-115921428D01*
X153557142Y-115892857D01*
X153528571Y-115864285D01*
X153500000Y-115807142D01*
X153500000Y-115635714D01*
X153528571Y-115578571D01*
X153557142Y-115550000D01*
X153614285Y-115521428D01*
X153728571Y-115521428D01*
X153785714Y-115550000D01*
X154300000Y-115892857D02*
X154242857Y-115921428D01*
X154128571Y-115921428D01*
X154071428Y-115892857D01*
X154042857Y-115835714D01*
X154042857Y-115607142D01*
X154071428Y-115550000D01*
X154128571Y-115521428D01*
X154242857Y-115521428D01*
X154300000Y-115550000D01*
X154328571Y-115607142D01*
X154328571Y-115664285D01*
X154042857Y-115721428D01*
D12*
X135385714Y-139900000D02*
X135957142Y-139900000D01*
X135271428Y-140242857D02*
X135671428Y-139042857D01*
X136071428Y-140242857D01*
X136471428Y-139785714D02*
X137385714Y-139785714D01*
X138357142Y-139614285D02*
X138528571Y-139671428D01*
X138585714Y-139728571D01*
X138642857Y-139842857D01*
X138642857Y-140014285D01*
X138585714Y-140128571D01*
X138528571Y-140185714D01*
X138414285Y-140242857D01*
X137957142Y-140242857D01*
X137957142Y-139042857D01*
X138357142Y-139042857D01*
X138471428Y-139100000D01*
X138528571Y-139157142D01*
X138585714Y-139271428D01*
X138585714Y-139385714D01*
X138528571Y-139500000D01*
X138471428Y-139557142D01*
X138357142Y-139614285D01*
X137957142Y-139614285D01*
X139157142Y-139785714D02*
X140071428Y-139785714D01*
X141042857Y-139614285D02*
X141214285Y-139671428D01*
X141271428Y-139728571D01*
X141328571Y-139842857D01*
X141328571Y-140014285D01*
X141271428Y-140128571D01*
X141214285Y-140185714D01*
X141100000Y-140242857D01*
X140642857Y-140242857D01*
X140642857Y-139042857D01*
X141042857Y-139042857D01*
X141157142Y-139100000D01*
X141214285Y-139157142D01*
X141271428Y-139271428D01*
X141271428Y-139385714D01*
X141214285Y-139500000D01*
X141157142Y-139557142D01*
X141042857Y-139614285D01*
X140642857Y-139614285D01*
X141842857Y-139785714D02*
X142757142Y-139785714D01*
X144014285Y-140128571D02*
X143957142Y-140185714D01*
X143785714Y-140242857D01*
X143671428Y-140242857D01*
X143500000Y-140185714D01*
X143385714Y-140071428D01*
X143328571Y-139957142D01*
X143271428Y-139728571D01*
X143271428Y-139557142D01*
X143328571Y-139328571D01*
X143385714Y-139214285D01*
X143500000Y-139100000D01*
X143671428Y-139042857D01*
X143785714Y-139042857D01*
X143957142Y-139100000D01*
X144014285Y-139157142D01*
D11*
X129557142Y-107400000D02*
X129842857Y-107400000D01*
X129500000Y-107571428D02*
X129700000Y-106971428D01*
X129900000Y-107571428D01*
X130100000Y-106971428D02*
X130100000Y-107457142D01*
X130128571Y-107514285D01*
X130157142Y-107542857D01*
X130214285Y-107571428D01*
X130328571Y-107571428D01*
X130385714Y-107542857D01*
X130414285Y-107514285D01*
X130442857Y-107457142D01*
X130442857Y-106971428D01*
X130671428Y-106971428D02*
X131071428Y-107571428D01*
X131071428Y-106971428D02*
X130671428Y-107571428D01*
D10*
X163378571Y-131052380D02*
X163378571Y-129147619D01*
X164330952Y-130100000D02*
X162426190Y-130100000D01*
D11*
X167173928Y-101232142D02*
X167373928Y-101232142D01*
X167459642Y-101546428D02*
X167173928Y-101546428D01*
X167173928Y-100946428D01*
X167459642Y-100946428D01*
X167716785Y-101546428D02*
X167716785Y-100946428D01*
X168059642Y-101546428D01*
X168059642Y-100946428D01*
X168688214Y-101489285D02*
X168659642Y-101517857D01*
X168573928Y-101546428D01*
X168516785Y-101546428D01*
X168431071Y-101517857D01*
X168373928Y-101460714D01*
X168345357Y-101403571D01*
X168316785Y-101289285D01*
X168316785Y-101203571D01*
X168345357Y-101089285D01*
X168373928Y-101032142D01*
X168431071Y-100975000D01*
X168516785Y-100946428D01*
X168573928Y-100946428D01*
X168659642Y-100975000D01*
X168688214Y-101003571D01*
X169145357Y-101232142D02*
X169231071Y-101260714D01*
X169259642Y-101289285D01*
X169288214Y-101346428D01*
X169288214Y-101432142D01*
X169259642Y-101489285D01*
X169231071Y-101517857D01*
X169173928Y-101546428D01*
X168945357Y-101546428D01*
X168945357Y-100946428D01*
X169145357Y-100946428D01*
X169202500Y-100975000D01*
X169231071Y-101003571D01*
X169259642Y-101060714D01*
X169259642Y-101117857D01*
X169231071Y-101175000D01*
X169202500Y-101203571D01*
X169145357Y-101232142D01*
X168945357Y-101232142D01*
X167259642Y-102282142D02*
X167459642Y-102282142D01*
X167545357Y-102596428D02*
X167259642Y-102596428D01*
X167259642Y-101996428D01*
X167545357Y-101996428D01*
X167802500Y-102596428D02*
X167802500Y-101996428D01*
X168145357Y-102596428D01*
X168145357Y-101996428D01*
X168773928Y-102539285D02*
X168745357Y-102567857D01*
X168659642Y-102596428D01*
X168602500Y-102596428D01*
X168516785Y-102567857D01*
X168459642Y-102510714D01*
X168431071Y-102453571D01*
X168402500Y-102339285D01*
X168402500Y-102253571D01*
X168431071Y-102139285D01*
X168459642Y-102082142D01*
X168516785Y-102025000D01*
X168602500Y-101996428D01*
X168659642Y-101996428D01*
X168745357Y-102025000D01*
X168773928Y-102053571D01*
X169002500Y-102425000D02*
X169288214Y-102425000D01*
X168945357Y-102596428D02*
X169145357Y-101996428D01*
X169345357Y-102596428D01*
X167488214Y-103332142D02*
X167688214Y-103332142D01*
X167773928Y-103646428D02*
X167488214Y-103646428D01*
X167488214Y-103046428D01*
X167773928Y-103046428D01*
X168031071Y-103646428D02*
X168031071Y-103046428D01*
X168373928Y-103646428D01*
X168373928Y-103046428D01*
X169002500Y-103589285D02*
X168973928Y-103617857D01*
X168888214Y-103646428D01*
X168831071Y-103646428D01*
X168745357Y-103617857D01*
X168688214Y-103560714D01*
X168659642Y-103503571D01*
X168631071Y-103389285D01*
X168631071Y-103303571D01*
X168659642Y-103189285D01*
X168688214Y-103132142D01*
X168745357Y-103075000D01*
X168831071Y-103046428D01*
X168888214Y-103046428D01*
X168973928Y-103075000D01*
X169002500Y-103103571D01*
X169259642Y-103646428D02*
X169259642Y-103046428D01*
X167831071Y-104096428D02*
X168202500Y-104096428D01*
X168002500Y-104325000D01*
X168088214Y-104325000D01*
X168145357Y-104353571D01*
X168173928Y-104382142D01*
X168202500Y-104439285D01*
X168202500Y-104582142D01*
X168173928Y-104639285D01*
X168145357Y-104667857D01*
X168088214Y-104696428D01*
X167916785Y-104696428D01*
X167859642Y-104667857D01*
X167831071Y-104639285D01*
X168373928Y-104096428D02*
X168573928Y-104696428D01*
X168773928Y-104096428D01*
X168916785Y-104096428D02*
X169288214Y-104096428D01*
X169088214Y-104325000D01*
X169173928Y-104325000D01*
X169231071Y-104353571D01*
X169259642Y-104382142D01*
X169288214Y-104439285D01*
X169288214Y-104582142D01*
X169259642Y-104639285D01*
X169231071Y-104667857D01*
X169173928Y-104696428D01*
X169002500Y-104696428D01*
X168945357Y-104667857D01*
X168916785Y-104639285D01*
X167745357Y-105146428D02*
X167945357Y-105746428D01*
X168145357Y-105146428D01*
X168345357Y-105746428D02*
X168345357Y-105146428D01*
X168488214Y-105146428D01*
X168573928Y-105175000D01*
X168631071Y-105232142D01*
X168659642Y-105289285D01*
X168688214Y-105403571D01*
X168688214Y-105489285D01*
X168659642Y-105603571D01*
X168631071Y-105660714D01*
X168573928Y-105717857D01*
X168488214Y-105746428D01*
X168345357Y-105746428D01*
X168945357Y-105746428D02*
X168945357Y-105146428D01*
X169088214Y-105146428D01*
X169173928Y-105175000D01*
X169231071Y-105232142D01*
X169259642Y-105289285D01*
X169288214Y-105403571D01*
X169288214Y-105489285D01*
X169259642Y-105603571D01*
X169231071Y-105660714D01*
X169173928Y-105717857D01*
X169088214Y-105746428D01*
X168945357Y-105746428D01*
X168031071Y-106225000D02*
X167973928Y-106196428D01*
X167888214Y-106196428D01*
X167802500Y-106225000D01*
X167745357Y-106282142D01*
X167716785Y-106339285D01*
X167688214Y-106453571D01*
X167688214Y-106539285D01*
X167716785Y-106653571D01*
X167745357Y-106710714D01*
X167802500Y-106767857D01*
X167888214Y-106796428D01*
X167945357Y-106796428D01*
X168031071Y-106767857D01*
X168059642Y-106739285D01*
X168059642Y-106539285D01*
X167945357Y-106539285D01*
X168316785Y-106796428D02*
X168316785Y-106196428D01*
X168659642Y-106796428D01*
X168659642Y-106196428D01*
X168945357Y-106796428D02*
X168945357Y-106196428D01*
X169088214Y-106196428D01*
X169173928Y-106225000D01*
X169231071Y-106282142D01*
X169259642Y-106339285D01*
X169288214Y-106453571D01*
X169288214Y-106539285D01*
X169259642Y-106653571D01*
X169231071Y-106710714D01*
X169173928Y-106767857D01*
X169088214Y-106796428D01*
X168945357Y-106796428D01*
X154557142Y-119042857D02*
X154642857Y-119071428D01*
X154785714Y-119071428D01*
X154842857Y-119042857D01*
X154871428Y-119014285D01*
X154900000Y-118957142D01*
X154900000Y-118900000D01*
X154871428Y-118842857D01*
X154842857Y-118814285D01*
X154785714Y-118785714D01*
X154671428Y-118757142D01*
X154614285Y-118728571D01*
X154585714Y-118700000D01*
X154557142Y-118642857D01*
X154557142Y-118585714D01*
X154585714Y-118528571D01*
X154614285Y-118500000D01*
X154671428Y-118471428D01*
X154814285Y-118471428D01*
X154900000Y-118500000D01*
X155271428Y-118785714D02*
X155271428Y-119071428D01*
X155071428Y-118471428D02*
X155271428Y-118785714D01*
X155471428Y-118471428D01*
X155671428Y-119071428D02*
X155671428Y-118471428D01*
X156014285Y-119071428D01*
X156014285Y-118471428D01*
X156642857Y-119014285D02*
X156614285Y-119042857D01*
X156528571Y-119071428D01*
X156471428Y-119071428D01*
X156385714Y-119042857D01*
X156328571Y-118985714D01*
X156300000Y-118928571D01*
X156271428Y-118814285D01*
X156271428Y-118728571D01*
X156300000Y-118614285D01*
X156328571Y-118557142D01*
X156385714Y-118500000D01*
X156471428Y-118471428D01*
X156528571Y-118471428D01*
X156614285Y-118500000D01*
X156642857Y-118528571D01*
X161128571Y-116371428D02*
X161128571Y-116857142D01*
X161157142Y-116914285D01*
X161185714Y-116942857D01*
X161242857Y-116971428D01*
X161357142Y-116971428D01*
X161414285Y-116942857D01*
X161442857Y-116914285D01*
X161471428Y-116857142D01*
X161471428Y-116371428D01*
X161728571Y-116800000D02*
X162014285Y-116800000D01*
X161671428Y-116971428D02*
X161871428Y-116371428D01*
X162071428Y-116971428D01*
X162614285Y-116971428D02*
X162414285Y-116685714D01*
X162271428Y-116971428D02*
X162271428Y-116371428D01*
X162500000Y-116371428D01*
X162557142Y-116400000D01*
X162585714Y-116428571D01*
X162614285Y-116485714D01*
X162614285Y-116571428D01*
X162585714Y-116628571D01*
X162557142Y-116657142D01*
X162500000Y-116685714D01*
X162271428Y-116685714D01*
X162785714Y-116371428D02*
X163128571Y-116371428D01*
X162957142Y-116971428D02*
X162957142Y-116371428D01*
X163328571Y-116914285D02*
X163357142Y-116942857D01*
X163328571Y-116971428D01*
X163300000Y-116942857D01*
X163328571Y-116914285D01*
X163328571Y-116971428D01*
X163328571Y-116600000D02*
X163357142Y-116628571D01*
X163328571Y-116657142D01*
X163300000Y-116628571D01*
X163328571Y-116600000D01*
X163328571Y-116657142D01*
X163528571Y-116371428D02*
X163871428Y-116371428D01*
X163700000Y-116971428D02*
X163700000Y-116371428D01*
X164014285Y-116371428D02*
X164414285Y-116971428D01*
X164414285Y-116371428D02*
X164014285Y-116971428D01*
X164642857Y-116742857D02*
X165100000Y-116742857D01*
X165728571Y-116971428D02*
X165528571Y-116685714D01*
X165385714Y-116971428D02*
X165385714Y-116371428D01*
X165614285Y-116371428D01*
X165671428Y-116400000D01*
X165700000Y-116428571D01*
X165728571Y-116485714D01*
X165728571Y-116571428D01*
X165700000Y-116628571D01*
X165671428Y-116657142D01*
X165614285Y-116685714D01*
X165385714Y-116685714D01*
X165928571Y-116371428D02*
X166328571Y-116971428D01*
X166328571Y-116371428D02*
X165928571Y-116971428D01*
X158428571Y-123571428D02*
X158428571Y-122971428D01*
X158685714Y-123028571D02*
X158714285Y-123000000D01*
X158771428Y-122971428D01*
X158914285Y-122971428D01*
X158971428Y-123000000D01*
X159000000Y-123028571D01*
X159028571Y-123085714D01*
X159028571Y-123142857D01*
X159000000Y-123228571D01*
X158657142Y-123571428D01*
X159028571Y-123571428D01*
X159628571Y-123514285D02*
X159600000Y-123542857D01*
X159514285Y-123571428D01*
X159457142Y-123571428D01*
X159371428Y-123542857D01*
X159314285Y-123485714D01*
X159285714Y-123428571D01*
X159257142Y-123314285D01*
X159257142Y-123228571D01*
X159285714Y-123114285D01*
X159314285Y-123057142D01*
X159371428Y-123000000D01*
X159457142Y-122971428D01*
X159514285Y-122971428D01*
X159600000Y-123000000D01*
X159628571Y-123028571D01*
X159885714Y-123514285D02*
X159914285Y-123542857D01*
X159885714Y-123571428D01*
X159857142Y-123542857D01*
X159885714Y-123514285D01*
X159885714Y-123571428D01*
X159885714Y-123200000D02*
X159914285Y-123228571D01*
X159885714Y-123257142D01*
X159857142Y-123228571D01*
X159885714Y-123200000D01*
X159885714Y-123257142D01*
X160142857Y-123542857D02*
X160228571Y-123571428D01*
X160371428Y-123571428D01*
X160428571Y-123542857D01*
X160457142Y-123514285D01*
X160485714Y-123457142D01*
X160485714Y-123400000D01*
X160457142Y-123342857D01*
X160428571Y-123314285D01*
X160371428Y-123285714D01*
X160257142Y-123257142D01*
X160200000Y-123228571D01*
X160171428Y-123200000D01*
X160142857Y-123142857D01*
X160142857Y-123085714D01*
X160171428Y-123028571D01*
X160200000Y-123000000D01*
X160257142Y-122971428D01*
X160400000Y-122971428D01*
X160485714Y-123000000D01*
X161085714Y-123514285D02*
X161057142Y-123542857D01*
X160971428Y-123571428D01*
X160914285Y-123571428D01*
X160828571Y-123542857D01*
X160771428Y-123485714D01*
X160742857Y-123428571D01*
X160714285Y-123314285D01*
X160714285Y-123228571D01*
X160742857Y-123114285D01*
X160771428Y-123057142D01*
X160828571Y-123000000D01*
X160914285Y-122971428D01*
X160971428Y-122971428D01*
X161057142Y-123000000D01*
X161085714Y-123028571D01*
X161628571Y-123571428D02*
X161342857Y-123571428D01*
X161342857Y-122971428D01*
X161828571Y-123342857D02*
X162285714Y-123342857D01*
X162542857Y-123542857D02*
X162628571Y-123571428D01*
X162771428Y-123571428D01*
X162828571Y-123542857D01*
X162857142Y-123514285D01*
X162885714Y-123457142D01*
X162885714Y-123400000D01*
X162857142Y-123342857D01*
X162828571Y-123314285D01*
X162771428Y-123285714D01*
X162657142Y-123257142D01*
X162600000Y-123228571D01*
X162571428Y-123200000D01*
X162542857Y-123142857D01*
X162542857Y-123085714D01*
X162571428Y-123028571D01*
X162600000Y-123000000D01*
X162657142Y-122971428D01*
X162800000Y-122971428D01*
X162885714Y-123000000D01*
X163142857Y-123571428D02*
X163142857Y-122971428D01*
X163285714Y-122971428D01*
X163371428Y-123000000D01*
X163428571Y-123057142D01*
X163457142Y-123114285D01*
X163485714Y-123228571D01*
X163485714Y-123314285D01*
X163457142Y-123428571D01*
X163428571Y-123485714D01*
X163371428Y-123542857D01*
X163285714Y-123571428D01*
X163142857Y-123571428D01*
X163714285Y-123400000D02*
X164000000Y-123400000D01*
X163657142Y-123571428D02*
X163857142Y-122971428D01*
X164057142Y-123571428D01*
X150871428Y-111371428D02*
X150671428Y-111085714D01*
X150528571Y-111371428D02*
X150528571Y-110771428D01*
X150757142Y-110771428D01*
X150814285Y-110800000D01*
X150842857Y-110828571D01*
X150871428Y-110885714D01*
X150871428Y-110971428D01*
X150842857Y-111028571D01*
X150814285Y-111057142D01*
X150757142Y-111085714D01*
X150528571Y-111085714D01*
X151100000Y-111342857D02*
X151185714Y-111371428D01*
X151328571Y-111371428D01*
X151385714Y-111342857D01*
X151414285Y-111314285D01*
X151442857Y-111257142D01*
X151442857Y-111200000D01*
X151414285Y-111142857D01*
X151385714Y-111114285D01*
X151328571Y-111085714D01*
X151214285Y-111057142D01*
X151157142Y-111028571D01*
X151128571Y-111000000D01*
X151100000Y-110942857D01*
X151100000Y-110885714D01*
X151128571Y-110828571D01*
X151157142Y-110800000D01*
X151214285Y-110771428D01*
X151357142Y-110771428D01*
X151442857Y-110800000D01*
X151614285Y-110771428D02*
X151957142Y-110771428D01*
X151785714Y-111371428D02*
X151785714Y-110771428D01*
D13*
X147950000Y-106600000D02*
X146450000Y-106600000D01*
X147950000Y-106600000D02*
X147950000Y-99000000D01*
X138450000Y-106600000D02*
X138450000Y-99000000D01*
X139950000Y-106600000D02*
X138450000Y-106600000D01*
X134945522Y-128275727D02*
X135175727Y-128045522D01*
X134224273Y-127554478D02*
X134454478Y-127324273D01*
X159630000Y-117400000D02*
X156970000Y-117400000D01*
X159630000Y-120000000D02*
X159630000Y-117400000D01*
X156970000Y-120000000D02*
X156970000Y-117400000D01*
X159630000Y-120000000D02*
X156970000Y-120000000D01*
X159630000Y-121270000D02*
X159630000Y-122600000D01*
X159630000Y-122600000D02*
X158300000Y-122600000D01*
X149800000Y-108700000D02*
X152600000Y-108700000D01*
X149800000Y-110500000D02*
X152600000Y-110500000D01*
D11*
X147675000Y-122500000D02*
X146325000Y-122500000D01*
X152325000Y-117375000D02*
X147675000Y-117375000D01*
X152325000Y-122625000D02*
X147675000Y-122625000D01*
X152325000Y-117375000D02*
X152325000Y-117600000D01*
X147675000Y-117375000D02*
X147675000Y-117600000D01*
X152325000Y-122625000D02*
X152325000Y-122400000D01*
X147675000Y-122625000D02*
X147675000Y-122500000D01*
D13*
X150890000Y-128752064D02*
X150890000Y-127547936D01*
X153610000Y-128752064D02*
X153610000Y-127547936D01*
X147690000Y-128752064D02*
X147690000Y-127547936D01*
X150410000Y-128752064D02*
X150410000Y-127547936D01*
X157291422Y-127440000D02*
X157808578Y-127440000D01*
X157291422Y-128860000D02*
X157808578Y-128860000D01*
X129440000Y-129102064D02*
X129440000Y-127897936D01*
X132160000Y-129102064D02*
X132160000Y-127897936D01*
X132160000Y-123297936D02*
X132160000Y-124502064D01*
X129440000Y-123297936D02*
X129440000Y-124502064D01*
X168520000Y-122600000D02*
X168520000Y-119940000D01*
X163380000Y-122600000D02*
X168520000Y-122600000D01*
X163380000Y-119940000D02*
X168520000Y-119940000D01*
X163380000Y-122600000D02*
X163380000Y-119940000D01*
X162110000Y-122600000D02*
X160780000Y-122600000D01*
X160780000Y-122600000D02*
X160780000Y-121270000D01*
X168520000Y-120060000D02*
X168520000Y-117400000D01*
X163380000Y-120060000D02*
X168520000Y-120060000D01*
X163380000Y-117400000D02*
X168520000Y-117400000D01*
X163380000Y-120060000D02*
X163380000Y-117400000D01*
X162110000Y-120060000D02*
X160780000Y-120060000D01*
X160780000Y-120060000D02*
X160780000Y-118730000D01*
X151840000Y-103060000D02*
X151840000Y-101840000D01*
X153000000Y-103060000D02*
X151840000Y-103060000D01*
X151840000Y-101840000D02*
X153000000Y-101840000D01*
X150760000Y-101510000D02*
X149540000Y-101510000D01*
X150760000Y-100350000D02*
X150760000Y-101510000D01*
X149540000Y-101510000D02*
X149540000Y-100350000D01*
X150710000Y-108360000D02*
X149490000Y-108360000D01*
X150710000Y-107200000D02*
X150710000Y-108360000D01*
X149490000Y-108360000D02*
X149490000Y-107200000D01*
X148895000Y-102440000D02*
X148740000Y-102440000D01*
X150155000Y-102440000D02*
X150345000Y-102440000D01*
X151605000Y-105860000D02*
X151760000Y-105860000D01*
X150155000Y-105860000D02*
X150345000Y-105860000D01*
X151605000Y-102440000D02*
X151760000Y-102440000D01*
X151760000Y-105860000D02*
X151760000Y-102440000D01*
X148740000Y-106150000D02*
X148740000Y-102440000D01*
X154865000Y-104890000D02*
X154390000Y-104890000D01*
X161610000Y-112110000D02*
X161610000Y-111635000D01*
X161135000Y-112110000D02*
X161610000Y-112110000D01*
X154390000Y-112110000D02*
X154390000Y-111635000D01*
X154865000Y-112110000D02*
X154390000Y-112110000D01*
X161610000Y-104890000D02*
X161610000Y-105365000D01*
X161135000Y-104890000D02*
X161610000Y-104890000D01*
X135085595Y-125070935D02*
X134767397Y-125389133D01*
X139893921Y-130303525D02*
X139681789Y-130091393D01*
X140106053Y-130091393D02*
X139893921Y-130303525D01*
X144914379Y-125283067D02*
X144702247Y-125070935D01*
X144702247Y-125495199D02*
X144914379Y-125283067D01*
X139893921Y-120262609D02*
X140106053Y-120474741D01*
X139681789Y-120474741D02*
X139893921Y-120262609D01*
D11*
X145700000Y-137800000D02*
X145300000Y-137800000D01*
X145700000Y-137800000D02*
X145700000Y-137400000D01*
X142300000Y-137800000D02*
X142700000Y-137800000D01*
X142300000Y-137800000D02*
X142300000Y-137400000D01*
X142300000Y-134400000D02*
X142300000Y-134800000D01*
X142700000Y-134400000D02*
X142300000Y-134400000D01*
X145300000Y-134400000D02*
X145750000Y-134400000D01*
X136050000Y-114900000D02*
X136050000Y-114500000D01*
X136050000Y-114900000D02*
X136450000Y-114900000D01*
X136050000Y-111500000D02*
X136050000Y-111900000D01*
X136050000Y-111500000D02*
X136450000Y-111500000D01*
X139450000Y-111500000D02*
X139050000Y-111500000D01*
X139450000Y-111900000D02*
X139450000Y-111500000D01*
X139450000Y-114500000D02*
X139450000Y-114950000D01*
X146200000Y-134400000D02*
X146600000Y-134400000D01*
X146200000Y-134400000D02*
X146200000Y-134800000D01*
X149600000Y-134400000D02*
X149200000Y-134400000D01*
X149600000Y-134400000D02*
X149600000Y-134800000D01*
X149600000Y-137800000D02*
X149600000Y-137400000D01*
X149200000Y-137800000D02*
X149600000Y-137800000D01*
X146600000Y-137800000D02*
X146150000Y-137800000D01*
X161750000Y-137800000D02*
X161350000Y-137800000D01*
X161750000Y-137800000D02*
X161750000Y-137400000D01*
X158350000Y-137800000D02*
X158750000Y-137800000D01*
X158350000Y-137800000D02*
X158350000Y-137400000D01*
X158350000Y-134400000D02*
X158350000Y-134800000D01*
X158750000Y-134400000D02*
X158350000Y-134400000D01*
X161350000Y-134400000D02*
X161800000Y-134400000D01*
X154300000Y-134400000D02*
X154700000Y-134400000D01*
X154300000Y-134400000D02*
X154300000Y-134800000D01*
X157700000Y-134400000D02*
X157300000Y-134400000D01*
X157700000Y-134400000D02*
X157700000Y-134800000D01*
X157700000Y-137800000D02*
X157700000Y-137400000D01*
X157300000Y-137800000D02*
X157700000Y-137800000D01*
X154700000Y-137800000D02*
X154250000Y-137800000D01*
X153700000Y-137800000D02*
X153300000Y-137800000D01*
X153700000Y-137800000D02*
X153700000Y-137400000D01*
X150300000Y-137800000D02*
X150700000Y-137800000D01*
X150300000Y-137800000D02*
X150300000Y-137400000D01*
X150300000Y-134400000D02*
X150300000Y-134800000D01*
X150700000Y-134400000D02*
X150300000Y-134400000D01*
X153300000Y-134400000D02*
X153750000Y-134400000D01*
X138200000Y-134400000D02*
X138600000Y-134400000D01*
X138200000Y-134400000D02*
X138200000Y-134800000D01*
X141600000Y-134400000D02*
X141200000Y-134400000D01*
X141600000Y-134400000D02*
X141600000Y-134800000D01*
X141600000Y-137800000D02*
X141600000Y-137400000D01*
X141200000Y-137800000D02*
X141600000Y-137800000D01*
X138600000Y-137800000D02*
X138150000Y-137800000D01*
D13*
X160590000Y-125241422D02*
X160590000Y-125758578D01*
X162410000Y-125241422D02*
X162410000Y-125758578D01*
X134850000Y-121350000D02*
X134850000Y-116250000D01*
X129750000Y-121350000D02*
X129750000Y-116250000D01*
X162500000Y-115000000D02*
X163700000Y-115000000D01*
X162500000Y-113400000D02*
X163500000Y-113400000D01*
X171060000Y-122600000D02*
X169730000Y-122600000D01*
X171060000Y-121270000D02*
X171060000Y-122600000D01*
X171060000Y-120000000D02*
X168400000Y-120000000D01*
X168400000Y-120000000D02*
X168400000Y-107240000D01*
X171060000Y-120000000D02*
X171060000Y-107240000D01*
X171060000Y-107240000D02*
X168400000Y-107240000D01*
X157230000Y-124780000D02*
X159230000Y-124780000D01*
X159230000Y-127020000D02*
X158230000Y-127020000D01*
D14*
X141550000Y-108790000D02*
G75*
G03X141550000Y-108790000I-50000J0D01*
G01*
D13*
X161208578Y-127440000D02*
X160691422Y-127440000D01*
X161208578Y-128860000D02*
X160691422Y-128860000D01*
D11*
X141500000Y-111500000D02*
X143700000Y-111500000D01*
X141125000Y-114900000D02*
X144075000Y-114900000D01*
D13*
X127200000Y-107950000D02*
X127200000Y-108350000D01*
X127840000Y-107950000D02*
X127200000Y-107950000D01*
X131059000Y-112355000D02*
X130931000Y-112226000D01*
X133275000Y-114570000D02*
X133181000Y-114476000D01*
X130819000Y-112525000D02*
X130726000Y-112431000D01*
X133069000Y-114775000D02*
X132941000Y-114646000D01*
X135160000Y-115310000D02*
X127440000Y-115310000D01*
X135160000Y-108190000D02*
X127440000Y-108190000D01*
X127440000Y-108190000D02*
X127440000Y-115310000D01*
X135160000Y-108190000D02*
X135160000Y-115310000D01*
X129000000Y-108190000D02*
X129000000Y-115310000D01*
X127900000Y-108190000D02*
X127900000Y-115310000D01*
X133680000Y-113500000D02*
G75*
G03X133680000Y-113500000I-1680000J0D01*
G01*
X130319901Y-110028674D02*
G75*
G02X130560000Y-109134000I1680099J28674D01*
G01*
X131110106Y-108574642D02*
G75*
G02X132866000Y-108560000I889894J-1425358D01*
G01*
X133425358Y-109110106D02*
G75*
G02X133440000Y-110866000I-1425358J-889894D01*
G01*
X132890193Y-111425505D02*
G75*
G02X131109000Y-111425000I-890193J1425505D01*
G01*
X130575279Y-110890264D02*
G75*
G02X130320000Y-110000000I1424721J890264D01*
G01*
X159202064Y-132190000D02*
X157997936Y-132190000D01*
X159202064Y-134010000D02*
X157997936Y-134010000D01*
X151102064Y-132190000D02*
X149897936Y-132190000D01*
X151102064Y-134010000D02*
X149897936Y-134010000D01*
X143202064Y-132190000D02*
X141997936Y-132190000D01*
X143202064Y-134010000D02*
X141997936Y-134010000D01*
X172800000Y-132150000D02*
X172800000Y-131750000D01*
X172160000Y-132150000D02*
X172800000Y-132150000D01*
X168941000Y-127745000D02*
X169069000Y-127874000D01*
X166725000Y-125530000D02*
X166819000Y-125624000D01*
X169181000Y-127575000D02*
X169274000Y-127669000D01*
X166931000Y-125325000D02*
X167059000Y-125454000D01*
X164840000Y-124790000D02*
X172560000Y-124790000D01*
X164840000Y-131910000D02*
X172560000Y-131910000D01*
X172560000Y-131910000D02*
X172560000Y-124790000D01*
X164840000Y-131910000D02*
X164840000Y-124790000D01*
X171000000Y-131910000D02*
X171000000Y-124790000D01*
X172100000Y-131910000D02*
X172100000Y-124790000D01*
X169680000Y-126600000D02*
G75*
G03X169680000Y-126600000I-1680000J0D01*
G01*
X169680099Y-130071326D02*
G75*
G02X169440000Y-130966000I-1680099J-28674D01*
G01*
X168889894Y-131525358D02*
G75*
G02X167134000Y-131540000I-889894J1425358D01*
G01*
X166574642Y-130989894D02*
G75*
G02X166560000Y-129234000I1425358J889894D01*
G01*
X167109807Y-128674495D02*
G75*
G02X168891000Y-128675000I890193J-1425505D01*
G01*
X169424721Y-129209736D02*
G75*
G02X169680000Y-130100000I-1424721J-890264D01*
G01*
X136541422Y-118710000D02*
X137058578Y-118710000D01*
X136541422Y-117290000D02*
X137058578Y-117290000D01*
X144860000Y-141060000D02*
X144860000Y-139730000D01*
X146190000Y-141060000D02*
X144860000Y-141060000D01*
X147460000Y-141060000D02*
X147460000Y-138400000D01*
X147460000Y-138400000D02*
X155140000Y-138400000D01*
X147460000Y-141060000D02*
X155140000Y-141060000D01*
X155140000Y-141060000D02*
X155140000Y-138400000D01*
X139337221Y-108010000D02*
X139662779Y-108010000D01*
X139337221Y-106990000D02*
X139662779Y-106990000D01*
X159662779Y-115090000D02*
X159337221Y-115090000D01*
X159662779Y-116110000D02*
X159337221Y-116110000D01*
X155460000Y-102270000D02*
X154825000Y-102270000D01*
X154825000Y-102270000D02*
X154825000Y-101635000D01*
D14*
X134576981Y-122871832D02*
G75*
G03X134576981Y-122871832I-50000J0D01*
G01*
D13*
X135975727Y-130054478D02*
X135745522Y-129824273D01*
X135254478Y-130775727D02*
X135024273Y-130545522D01*
M02*
