M48
; DRILL file {KiCad (5.1.0-1390-gc38e9d5c4)} date Wednesday, August 14, 2019 at 05:11:03 PM
; FORMAT={-:-/ absolute / metric / decimal}
; #@! TF.CreationDate,2019-08-14T17:11:03-04:00
; #@! TF.GenerationSoftware,Kicad,Pcbnew,(5.1.0-1390-gc38e9d5c4)
FMAT,2
METRIC
T1C0.250
T2C0.254
T3C0.400
T4C1.000
T5C1.100
T6C1.200
T7C1.300
T8C3.200
T9C0.650
T10C0.950
T11C0.991
T12C3.200
%
G90
G05
T1
X155.45Y-105.95
X155.45Y-107.225
X155.45Y-108.5
X155.45Y-109.775
X155.45Y-111.05
X156.725Y-105.95
X156.725Y-107.225
X156.725Y-108.5
X156.725Y-109.775
X156.725Y-111.05
X158.0Y-105.95
X158.0Y-107.225
X158.0Y-108.5
X158.0Y-109.775
X158.0Y-111.05
X159.275Y-105.95
X159.275Y-107.225
X159.275Y-108.5
X159.275Y-109.775
X159.275Y-111.05
X160.55Y-105.95
X160.55Y-107.225
X160.55Y-108.5
X160.55Y-109.775
X160.55Y-111.05
X158.73Y-125.4
X158.73Y-126.4
T2
X130.3Y-129.0
X130.8Y-129.0
X131.3Y-129.0
X132.5Y-124.5
X132.5Y-125.0
X132.81Y-126.957
X133.0Y-124.5
X133.0Y-125.0
X133.1Y-122.6
X133.686Y-122.6
X134.3Y-130.5
X134.3Y-131.1
X134.806Y-121.3
X135.84Y-121.461
X136.2Y-111.8
X136.2Y-114.6
X136.5Y-119.15
X136.915Y-130.4
X137.2Y-111.8
X137.2Y-114.6
X137.5Y-116.5
X137.5Y-117.0
X138.0Y-120.95
X138.3Y-111.8
X138.3Y-112.5
X138.3Y-113.2
X138.3Y-113.9
X138.3Y-114.6
X138.5Y-134.6
X138.5Y-135.6
X138.5Y-136.7
X139.2Y-136.7
X139.5Y-114.8
X139.9Y-113.95
X139.9Y-114.45
X139.9Y-136.7
X140.0Y-132.5
X140.0Y-133.0
X140.209Y-119.323
X140.5Y-132.5
X140.5Y-133.0
X140.548Y-114.58
X140.6Y-136.7
X140.65Y-111.45
X141.3Y-134.6
X141.3Y-135.6
X141.3Y-136.7
X142.2Y-112.3
X142.2Y-114.1
X142.4Y-106.816
X142.4Y-116.4
X142.454Y-122.128
X142.6Y-113.2
X142.6Y-135.5
X142.6Y-136.7
X142.6Y-137.6
X142.866Y-119.96
X143.0Y-112.3
X143.0Y-114.1
X143.005Y-121.312
X143.3Y-135.5
X143.353Y-117.753
X143.42Y-122.17
X143.543Y-118.398
X144.0Y-135.5
X144.7Y-135.5
X145.05Y-119.883
X145.117Y-118.9
X145.254Y-120.511
X145.389Y-122.094
X145.4Y-107.35
X145.4Y-121.3
X145.4Y-136.6
X145.4Y-137.6
X145.45Y-135.5
X145.65Y-126.4
X146.1Y-128.75
X146.1Y-131.4
X146.5Y-134.6
X146.5Y-135.5
X146.5Y-136.7
X146.54Y-117.112
X146.7Y-129.867
X147.078Y-131.372
X147.2Y-136.7
X147.447Y-126.87
X147.45Y-126.35
X147.5Y-132.5
X147.5Y-133.0
X147.7Y-108.0
X147.7Y-109.283
X147.9Y-136.7
X147.95Y-130.7
X148.0Y-132.5
X148.0Y-133.0
X148.6Y-136.7
X148.7Y-114.0
X149.2Y-113.5
X149.3Y-134.6
X149.3Y-135.5
X149.3Y-136.7
X149.5Y-109.6
X149.6Y-112.9
X149.6Y-130.599
X150.008Y-114.708
X150.1Y-106.75
X150.15Y-99.9
X150.561Y-109.444
X150.6Y-135.5
X150.6Y-136.6
X150.6Y-137.6
X150.65Y-126.5
X150.65Y-127.0
X151.0Y-113.1
X151.233Y-107.633
X151.3Y-135.5
X151.7Y-108.1
X151.76Y-113.542
X152.0Y-135.5
X152.7Y-135.5
X153.4Y-102.45
X153.4Y-135.5
X153.4Y-136.7
X153.4Y-137.6
X153.85Y-126.5
X153.85Y-127.0
X154.1Y-104.6
X154.6Y-134.6
X154.6Y-135.4
X154.6Y-136.7
X154.7Y-105.2
X155.4Y-136.7
X155.45Y-101.65
X155.46Y-100.365
X155.5Y-132.5
X155.5Y-133.0
X155.6Y-116.7
X155.609Y-103.433
X156.0Y-104.2
X156.0Y-132.5
X156.0Y-133.0
X156.0Y-136.7
X156.6Y-136.7
X156.75Y-100.35
X157.4Y-134.6
X157.4Y-135.4
X157.4Y-136.7
X157.8Y-115.0
X158.0Y-101.65
X158.6Y-135.4
X158.6Y-136.7
X158.6Y-137.6
X159.27Y-101.635
X159.3Y-135.45
X159.341Y-104.241
X160.0Y-118.5
X160.05Y-135.45
X160.3Y-114.783
X160.341Y-113.659
X160.4Y-102.7
X160.54Y-101.635
X160.8Y-135.45
X161.1Y-113.7
X161.4Y-104.675
X161.5Y-135.45
X161.5Y-136.7
X161.5Y-137.6
X161.728Y-105.248
X161.793Y-113.707
X161.941Y-115.841
X162.165Y-106.797
X162.182Y-113.0
X162.219Y-107.455
X162.3Y-105.7
X162.907Y-106.843
X163.333Y-113.067
X163.65Y-109.45
X163.899Y-108.8
X164.059Y-115.959
X164.145Y-114.563
X164.148Y-115.246
X165.7Y-111.282
X166.369Y-111.301
X166.5Y-117.5
X168.0Y-109.053
X168.0Y-111.0
X147.25Y-118.05
X147.25Y-118.7
X147.25Y-119.35
X147.25Y-120.0
X147.25Y-120.65
X147.25Y-121.3
X147.25Y-121.95
X152.75Y-118.05
X152.75Y-118.7
X152.75Y-119.35
X152.75Y-120.0
X152.75Y-120.65
X152.75Y-121.3
X152.75Y-121.95
X137.362Y-124.534
X137.362Y-126.033
X138.112Y-125.283
X138.253Y-123.643
X138.253Y-126.924
X139.003Y-124.392
X139.003Y-126.174
X139.144Y-122.752
X139.144Y-127.815
X139.894Y-123.501
X139.894Y-125.283
X139.894Y-127.065
X140.643Y-122.752
X140.643Y-127.815
X140.785Y-124.392
X140.785Y-126.174
X141.534Y-123.643
X141.534Y-126.924
X141.676Y-125.283
X142.425Y-124.534
X142.425Y-126.033
T3
X140.4Y-104.95
X140.8Y-104.25
X141.6Y-104.25
X142.0Y-104.95
X142.4Y-104.25
X142.8Y-104.95
X143.6Y-104.95
X144.0Y-104.25
X144.4Y-104.95
X144.8Y-104.25
X145.6Y-104.25
X146.0Y-104.95
T4
X158.3Y-118.73
X158.3Y-121.27
X162.11Y-121.27
X164.65Y-121.27
X167.19Y-121.27
X162.11Y-118.73
X164.65Y-118.73
X167.19Y-118.73
X169.73Y-108.57
X169.73Y-111.11
X169.73Y-113.65
X169.73Y-116.19
X169.73Y-118.73
X169.73Y-121.27
X146.19Y-139.73
X148.73Y-139.73
X151.27Y-139.73
X153.81Y-139.73
T5
X138.7Y-105.75
X147.7Y-105.75
T6
X132.0Y-110.0
X132.0Y-113.5
X168.0Y-126.6
X168.0Y-130.1
T7
X138.7Y-100.15
X147.7Y-100.15
T8
X134.5Y-104.5
T9
X146.925Y-104.25
T10
X139.475Y-104.25
T11
X154.19Y-101.0
X161.81Y-99.984
X161.81Y-102.016
T12
X134.5Y-135.5
X165.5Y-104.5
X165.5Y-135.5
T0
M30
