G04 #@! TF.GenerationSoftware,KiCad,Pcbnew,(5.1.0-1390-gc38e9d5c4)*
G04 #@! TF.CreationDate,2019-08-14T17:07:38-04:00*
G04 #@! TF.ProjectId,stm32-nema17-servo,73746d33-322d-46e6-956d-6131372d7365,rev?*
G04 #@! TF.SameCoordinates,Original*
G04 #@! TF.FileFunction,Paste,Bot*
G04 #@! TF.FilePolarity,Positive*
%FSLAX46Y46*%
G04 Gerber Fmt 4.6, Leading zero omitted, Abs format (unit mm)*
G04 Created by KiCad (PCBNEW (5.1.0-1390-gc38e9d5c4)) date 2019-08-14 17:07:38*
%MOMM*%
%LPD*%
G04 APERTURE LIST*
%ADD10C,0.100000*%
%ADD11C,0.350000*%
G04 APERTURE END LIST*
D10*
G36*
X147145985Y-117881661D02*
G01*
X147174372Y-117900628D01*
X147193339Y-117929015D01*
X147200000Y-117962500D01*
X147200000Y-118137500D01*
X147193339Y-118170985D01*
X147174372Y-118199372D01*
X147145985Y-118218339D01*
X147112500Y-118225000D01*
X146462500Y-118225000D01*
X146429015Y-118218339D01*
X146400628Y-118199372D01*
X146381661Y-118170985D01*
X146375000Y-118137500D01*
X146375000Y-117962500D01*
X146381661Y-117929015D01*
X146400628Y-117900628D01*
X146429015Y-117881661D01*
X146462500Y-117875000D01*
X147112500Y-117875000D01*
X147145985Y-117881661D01*
X147145985Y-117881661D01*
G37*
D11*
X146787500Y-118050000D03*
D10*
G36*
X147145985Y-118531661D02*
G01*
X147174372Y-118550628D01*
X147193339Y-118579015D01*
X147200000Y-118612500D01*
X147200000Y-118787500D01*
X147193339Y-118820985D01*
X147174372Y-118849372D01*
X147145985Y-118868339D01*
X147112500Y-118875000D01*
X146462500Y-118875000D01*
X146429015Y-118868339D01*
X146400628Y-118849372D01*
X146381661Y-118820985D01*
X146375000Y-118787500D01*
X146375000Y-118612500D01*
X146381661Y-118579015D01*
X146400628Y-118550628D01*
X146429015Y-118531661D01*
X146462500Y-118525000D01*
X147112500Y-118525000D01*
X147145985Y-118531661D01*
X147145985Y-118531661D01*
G37*
D11*
X146787500Y-118700000D03*
D10*
G36*
X147145985Y-119181661D02*
G01*
X147174372Y-119200628D01*
X147193339Y-119229015D01*
X147200000Y-119262500D01*
X147200000Y-119437500D01*
X147193339Y-119470985D01*
X147174372Y-119499372D01*
X147145985Y-119518339D01*
X147112500Y-119525000D01*
X146462500Y-119525000D01*
X146429015Y-119518339D01*
X146400628Y-119499372D01*
X146381661Y-119470985D01*
X146375000Y-119437500D01*
X146375000Y-119262500D01*
X146381661Y-119229015D01*
X146400628Y-119200628D01*
X146429015Y-119181661D01*
X146462500Y-119175000D01*
X147112500Y-119175000D01*
X147145985Y-119181661D01*
X147145985Y-119181661D01*
G37*
D11*
X146787500Y-119350000D03*
D10*
G36*
X147145985Y-119831661D02*
G01*
X147174372Y-119850628D01*
X147193339Y-119879015D01*
X147200000Y-119912500D01*
X147200000Y-120087500D01*
X147193339Y-120120985D01*
X147174372Y-120149372D01*
X147145985Y-120168339D01*
X147112500Y-120175000D01*
X146462500Y-120175000D01*
X146429015Y-120168339D01*
X146400628Y-120149372D01*
X146381661Y-120120985D01*
X146375000Y-120087500D01*
X146375000Y-119912500D01*
X146381661Y-119879015D01*
X146400628Y-119850628D01*
X146429015Y-119831661D01*
X146462500Y-119825000D01*
X147112500Y-119825000D01*
X147145985Y-119831661D01*
X147145985Y-119831661D01*
G37*
D11*
X146787500Y-120000000D03*
D10*
G36*
X147145985Y-120481661D02*
G01*
X147174372Y-120500628D01*
X147193339Y-120529015D01*
X147200000Y-120562500D01*
X147200000Y-120737500D01*
X147193339Y-120770985D01*
X147174372Y-120799372D01*
X147145985Y-120818339D01*
X147112500Y-120825000D01*
X146462500Y-120825000D01*
X146429015Y-120818339D01*
X146400628Y-120799372D01*
X146381661Y-120770985D01*
X146375000Y-120737500D01*
X146375000Y-120562500D01*
X146381661Y-120529015D01*
X146400628Y-120500628D01*
X146429015Y-120481661D01*
X146462500Y-120475000D01*
X147112500Y-120475000D01*
X147145985Y-120481661D01*
X147145985Y-120481661D01*
G37*
D11*
X146787500Y-120650000D03*
D10*
G36*
X147145985Y-121131661D02*
G01*
X147174372Y-121150628D01*
X147193339Y-121179015D01*
X147200000Y-121212500D01*
X147200000Y-121387500D01*
X147193339Y-121420985D01*
X147174372Y-121449372D01*
X147145985Y-121468339D01*
X147112500Y-121475000D01*
X146462500Y-121475000D01*
X146429015Y-121468339D01*
X146400628Y-121449372D01*
X146381661Y-121420985D01*
X146375000Y-121387500D01*
X146375000Y-121212500D01*
X146381661Y-121179015D01*
X146400628Y-121150628D01*
X146429015Y-121131661D01*
X146462500Y-121125000D01*
X147112500Y-121125000D01*
X147145985Y-121131661D01*
X147145985Y-121131661D01*
G37*
D11*
X146787500Y-121300000D03*
D10*
G36*
X147145985Y-121781661D02*
G01*
X147174372Y-121800628D01*
X147193339Y-121829015D01*
X147200000Y-121862500D01*
X147200000Y-122037500D01*
X147193339Y-122070985D01*
X147174372Y-122099372D01*
X147145985Y-122118339D01*
X147112500Y-122125000D01*
X146462500Y-122125000D01*
X146429015Y-122118339D01*
X146400628Y-122099372D01*
X146381661Y-122070985D01*
X146375000Y-122037500D01*
X146375000Y-121862500D01*
X146381661Y-121829015D01*
X146400628Y-121800628D01*
X146429015Y-121781661D01*
X146462500Y-121775000D01*
X147112500Y-121775000D01*
X147145985Y-121781661D01*
X147145985Y-121781661D01*
G37*
D11*
X146787500Y-121950000D03*
D10*
G36*
X153570985Y-121781661D02*
G01*
X153599372Y-121800628D01*
X153618339Y-121829015D01*
X153625000Y-121862500D01*
X153625000Y-122037500D01*
X153618339Y-122070985D01*
X153599372Y-122099372D01*
X153570985Y-122118339D01*
X153537500Y-122125000D01*
X152887500Y-122125000D01*
X152854015Y-122118339D01*
X152825628Y-122099372D01*
X152806661Y-122070985D01*
X152800000Y-122037500D01*
X152800000Y-121862500D01*
X152806661Y-121829015D01*
X152825628Y-121800628D01*
X152854015Y-121781661D01*
X152887500Y-121775000D01*
X153537500Y-121775000D01*
X153570985Y-121781661D01*
X153570985Y-121781661D01*
G37*
D11*
X153212500Y-121950000D03*
D10*
G36*
X153570985Y-121131661D02*
G01*
X153599372Y-121150628D01*
X153618339Y-121179015D01*
X153625000Y-121212500D01*
X153625000Y-121387500D01*
X153618339Y-121420985D01*
X153599372Y-121449372D01*
X153570985Y-121468339D01*
X153537500Y-121475000D01*
X152887500Y-121475000D01*
X152854015Y-121468339D01*
X152825628Y-121449372D01*
X152806661Y-121420985D01*
X152800000Y-121387500D01*
X152800000Y-121212500D01*
X152806661Y-121179015D01*
X152825628Y-121150628D01*
X152854015Y-121131661D01*
X152887500Y-121125000D01*
X153537500Y-121125000D01*
X153570985Y-121131661D01*
X153570985Y-121131661D01*
G37*
D11*
X153212500Y-121300000D03*
D10*
G36*
X153570985Y-120481661D02*
G01*
X153599372Y-120500628D01*
X153618339Y-120529015D01*
X153625000Y-120562500D01*
X153625000Y-120737500D01*
X153618339Y-120770985D01*
X153599372Y-120799372D01*
X153570985Y-120818339D01*
X153537500Y-120825000D01*
X152887500Y-120825000D01*
X152854015Y-120818339D01*
X152825628Y-120799372D01*
X152806661Y-120770985D01*
X152800000Y-120737500D01*
X152800000Y-120562500D01*
X152806661Y-120529015D01*
X152825628Y-120500628D01*
X152854015Y-120481661D01*
X152887500Y-120475000D01*
X153537500Y-120475000D01*
X153570985Y-120481661D01*
X153570985Y-120481661D01*
G37*
D11*
X153212500Y-120650000D03*
D10*
G36*
X153570985Y-119831661D02*
G01*
X153599372Y-119850628D01*
X153618339Y-119879015D01*
X153625000Y-119912500D01*
X153625000Y-120087500D01*
X153618339Y-120120985D01*
X153599372Y-120149372D01*
X153570985Y-120168339D01*
X153537500Y-120175000D01*
X152887500Y-120175000D01*
X152854015Y-120168339D01*
X152825628Y-120149372D01*
X152806661Y-120120985D01*
X152800000Y-120087500D01*
X152800000Y-119912500D01*
X152806661Y-119879015D01*
X152825628Y-119850628D01*
X152854015Y-119831661D01*
X152887500Y-119825000D01*
X153537500Y-119825000D01*
X153570985Y-119831661D01*
X153570985Y-119831661D01*
G37*
D11*
X153212500Y-120000000D03*
D10*
G36*
X153570985Y-119181661D02*
G01*
X153599372Y-119200628D01*
X153618339Y-119229015D01*
X153625000Y-119262500D01*
X153625000Y-119437500D01*
X153618339Y-119470985D01*
X153599372Y-119499372D01*
X153570985Y-119518339D01*
X153537500Y-119525000D01*
X152887500Y-119525000D01*
X152854015Y-119518339D01*
X152825628Y-119499372D01*
X152806661Y-119470985D01*
X152800000Y-119437500D01*
X152800000Y-119262500D01*
X152806661Y-119229015D01*
X152825628Y-119200628D01*
X152854015Y-119181661D01*
X152887500Y-119175000D01*
X153537500Y-119175000D01*
X153570985Y-119181661D01*
X153570985Y-119181661D01*
G37*
D11*
X153212500Y-119350000D03*
D10*
G36*
X153570985Y-118531661D02*
G01*
X153599372Y-118550628D01*
X153618339Y-118579015D01*
X153625000Y-118612500D01*
X153625000Y-118787500D01*
X153618339Y-118820985D01*
X153599372Y-118849372D01*
X153570985Y-118868339D01*
X153537500Y-118875000D01*
X152887500Y-118875000D01*
X152854015Y-118868339D01*
X152825628Y-118849372D01*
X152806661Y-118820985D01*
X152800000Y-118787500D01*
X152800000Y-118612500D01*
X152806661Y-118579015D01*
X152825628Y-118550628D01*
X152854015Y-118531661D01*
X152887500Y-118525000D01*
X153537500Y-118525000D01*
X153570985Y-118531661D01*
X153570985Y-118531661D01*
G37*
D11*
X153212500Y-118700000D03*
D10*
G36*
X153570985Y-117881661D02*
G01*
X153599372Y-117900628D01*
X153618339Y-117929015D01*
X153625000Y-117962500D01*
X153625000Y-118137500D01*
X153618339Y-118170985D01*
X153599372Y-118199372D01*
X153570985Y-118218339D01*
X153537500Y-118225000D01*
X152887500Y-118225000D01*
X152854015Y-118218339D01*
X152825628Y-118199372D01*
X152806661Y-118170985D01*
X152800000Y-118137500D01*
X152800000Y-117962500D01*
X152806661Y-117929015D01*
X152825628Y-117900628D01*
X152854015Y-117881661D01*
X152887500Y-117875000D01*
X153537500Y-117875000D01*
X153570985Y-117881661D01*
X153570985Y-117881661D01*
G37*
D11*
X153212500Y-118050000D03*
M02*
