G04 #@! TF.GenerationSoftware,KiCad,Pcbnew,(5.1.0-1390-gc38e9d5c4)*
G04 #@! TF.CreationDate,2019-08-14T17:07:38-04:00*
G04 #@! TF.ProjectId,stm32-nema17-servo,73746d33-322d-46e6-956d-6131372d7365,rev?*
G04 #@! TF.SameCoordinates,Original*
G04 #@! TF.FileFunction,Legend,Bot*
G04 #@! TF.FilePolarity,Positive*
%FSLAX46Y46*%
G04 Gerber Fmt 4.6, Leading zero omitted, Abs format (unit mm)*
G04 Created by KiCad (PCBNEW (5.1.0-1390-gc38e9d5c4)) date 2019-08-14 17:07:38*
%MOMM*%
%LPD*%
G04 APERTURE LIST*
%ADD10C,0.150000*%
%ADD11C,0.200000*%
%ADD12C,0.010000*%
G04 APERTURE END LIST*
D10*
X159557142Y-101404761D02*
X159414285Y-101452380D01*
X159176190Y-101452380D01*
X159080952Y-101404761D01*
X159033333Y-101357142D01*
X158985714Y-101261904D01*
X158985714Y-101166666D01*
X159033333Y-101071428D01*
X159080952Y-101023809D01*
X159176190Y-100976190D01*
X159366666Y-100928571D01*
X159461904Y-100880952D01*
X159509523Y-100833333D01*
X159557142Y-100738095D01*
X159557142Y-100642857D01*
X159509523Y-100547619D01*
X159461904Y-100500000D01*
X159366666Y-100452380D01*
X159128571Y-100452380D01*
X158985714Y-100500000D01*
X158652380Y-100452380D02*
X158414285Y-101452380D01*
X158223809Y-100738095D01*
X158033333Y-101452380D01*
X157795238Y-100452380D01*
X157414285Y-101452380D02*
X157414285Y-100452380D01*
X157176190Y-100452380D01*
X157033333Y-100500000D01*
X156938095Y-100595238D01*
X156890476Y-100690476D01*
X156842857Y-100880952D01*
X156842857Y-101023809D01*
X156890476Y-101214285D01*
X156938095Y-101309523D01*
X157033333Y-101404761D01*
X157176190Y-101452380D01*
X157414285Y-101452380D01*
X155895238Y-121738095D02*
X155847619Y-121595238D01*
X155847619Y-121357142D01*
X155895238Y-121261904D01*
X155942857Y-121214285D01*
X156038095Y-121166666D01*
X156133333Y-121166666D01*
X156228571Y-121214285D01*
X156276190Y-121261904D01*
X156323809Y-121357142D01*
X156371428Y-121547619D01*
X156419047Y-121642857D01*
X156466666Y-121690476D01*
X156561904Y-121738095D01*
X156657142Y-121738095D01*
X156752380Y-121690476D01*
X156800000Y-121642857D01*
X156847619Y-121547619D01*
X156847619Y-121309523D01*
X156800000Y-121166666D01*
X156323809Y-120547619D02*
X155847619Y-120547619D01*
X156847619Y-120880952D02*
X156323809Y-120547619D01*
X156847619Y-120214285D01*
X155847619Y-119880952D02*
X156847619Y-119880952D01*
X155847619Y-119309523D01*
X156847619Y-119309523D01*
X155942857Y-118261904D02*
X155895238Y-118309523D01*
X155847619Y-118452380D01*
X155847619Y-118547619D01*
X155895238Y-118690476D01*
X155990476Y-118785714D01*
X156085714Y-118833333D01*
X156276190Y-118880952D01*
X156419047Y-118880952D01*
X156609523Y-118833333D01*
X156704761Y-118785714D01*
X156800000Y-118690476D01*
X156847619Y-118547619D01*
X156847619Y-118452380D01*
X156800000Y-118309523D01*
X156752380Y-118261904D01*
X154952380Y-114227380D02*
X155523809Y-114227380D01*
X155238095Y-114227380D02*
X155238095Y-113227380D01*
X155333333Y-113370238D01*
X155428571Y-113465476D01*
X155523809Y-113513095D01*
X154571428Y-113322619D02*
X154523809Y-113275000D01*
X154428571Y-113227380D01*
X154190476Y-113227380D01*
X154095238Y-113275000D01*
X154047619Y-113322619D01*
X154000000Y-113417857D01*
X154000000Y-113513095D01*
X154047619Y-113655952D01*
X154619047Y-114227380D01*
X154000000Y-114227380D01*
X153571428Y-114227380D02*
X153571428Y-113227380D01*
X153571428Y-113608333D02*
X153476190Y-113560714D01*
X153285714Y-113560714D01*
X153190476Y-113608333D01*
X153142857Y-113655952D01*
X153095238Y-113751190D01*
X153095238Y-114036904D01*
X153142857Y-114132142D01*
X153190476Y-114179761D01*
X153285714Y-114227380D01*
X153476190Y-114227380D01*
X153571428Y-114179761D01*
X152666666Y-114227380D02*
X152666666Y-113560714D01*
X152666666Y-113227380D02*
X152714285Y-113275000D01*
X152666666Y-113322619D01*
X152619047Y-113275000D01*
X152666666Y-113227380D01*
X152666666Y-113322619D01*
X152333333Y-113560714D02*
X151952380Y-113560714D01*
X152190476Y-113227380D02*
X152190476Y-114084523D01*
X152142857Y-114179761D01*
X152047619Y-114227380D01*
X151952380Y-114227380D01*
X150857142Y-114227380D02*
X150857142Y-113560714D01*
X150857142Y-113655952D02*
X150809523Y-113608333D01*
X150714285Y-113560714D01*
X150571428Y-113560714D01*
X150476190Y-113608333D01*
X150428571Y-113703571D01*
X150428571Y-114227380D01*
X150428571Y-113703571D02*
X150380952Y-113608333D01*
X150285714Y-113560714D01*
X150142857Y-113560714D01*
X150047619Y-113608333D01*
X150000000Y-113703571D01*
X150000000Y-114227380D01*
X149095238Y-114227380D02*
X149095238Y-113703571D01*
X149142857Y-113608333D01*
X149238095Y-113560714D01*
X149428571Y-113560714D01*
X149523809Y-113608333D01*
X149095238Y-114179761D02*
X149190476Y-114227380D01*
X149428571Y-114227380D01*
X149523809Y-114179761D01*
X149571428Y-114084523D01*
X149571428Y-113989285D01*
X149523809Y-113894047D01*
X149428571Y-113846428D01*
X149190476Y-113846428D01*
X149095238Y-113798809D01*
X148190476Y-113560714D02*
X148190476Y-114370238D01*
X148238095Y-114465476D01*
X148285714Y-114513095D01*
X148380952Y-114560714D01*
X148523809Y-114560714D01*
X148619047Y-114513095D01*
X148190476Y-114179761D02*
X148285714Y-114227380D01*
X148476190Y-114227380D01*
X148571428Y-114179761D01*
X148619047Y-114132142D01*
X148666666Y-114036904D01*
X148666666Y-113751190D01*
X148619047Y-113655952D01*
X148571428Y-113608333D01*
X148476190Y-113560714D01*
X148285714Y-113560714D01*
X148190476Y-113608333D01*
X147714285Y-113560714D02*
X147714285Y-114227380D01*
X147714285Y-113655952D02*
X147666666Y-113608333D01*
X147571428Y-113560714D01*
X147428571Y-113560714D01*
X147333333Y-113608333D01*
X147285714Y-113703571D01*
X147285714Y-114227380D01*
X146428571Y-114179761D02*
X146523809Y-114227380D01*
X146714285Y-114227380D01*
X146809523Y-114179761D01*
X146857142Y-114084523D01*
X146857142Y-113703571D01*
X146809523Y-113608333D01*
X146714285Y-113560714D01*
X146523809Y-113560714D01*
X146428571Y-113608333D01*
X146380952Y-113703571D01*
X146380952Y-113798809D01*
X146857142Y-113894047D01*
X146095238Y-113560714D02*
X145714285Y-113560714D01*
X145952380Y-113227380D02*
X145952380Y-114084523D01*
X145904761Y-114179761D01*
X145809523Y-114227380D01*
X145714285Y-114227380D01*
X145380952Y-114227380D02*
X145380952Y-113560714D01*
X145380952Y-113227380D02*
X145428571Y-113275000D01*
X145380952Y-113322619D01*
X145333333Y-113275000D01*
X145380952Y-113227380D01*
X145380952Y-113322619D01*
X144476190Y-114179761D02*
X144571428Y-114227380D01*
X144761904Y-114227380D01*
X144857142Y-114179761D01*
X144904761Y-114132142D01*
X144952380Y-114036904D01*
X144952380Y-113751190D01*
X144904761Y-113655952D01*
X144857142Y-113608333D01*
X144761904Y-113560714D01*
X144571428Y-113560714D01*
X144476190Y-113608333D01*
X152333333Y-115829761D02*
X152428571Y-115877380D01*
X152619047Y-115877380D01*
X152714285Y-115829761D01*
X152761904Y-115734523D01*
X152761904Y-115353571D01*
X152714285Y-115258333D01*
X152619047Y-115210714D01*
X152428571Y-115210714D01*
X152333333Y-115258333D01*
X152285714Y-115353571D01*
X152285714Y-115448809D01*
X152761904Y-115544047D01*
X151857142Y-115210714D02*
X151857142Y-115877380D01*
X151857142Y-115305952D02*
X151809523Y-115258333D01*
X151714285Y-115210714D01*
X151571428Y-115210714D01*
X151476190Y-115258333D01*
X151428571Y-115353571D01*
X151428571Y-115877380D01*
X150523809Y-115829761D02*
X150619047Y-115877380D01*
X150809523Y-115877380D01*
X150904761Y-115829761D01*
X150952380Y-115782142D01*
X151000000Y-115686904D01*
X151000000Y-115401190D01*
X150952380Y-115305952D01*
X150904761Y-115258333D01*
X150809523Y-115210714D01*
X150619047Y-115210714D01*
X150523809Y-115258333D01*
X149952380Y-115877380D02*
X150047619Y-115829761D01*
X150095238Y-115782142D01*
X150142857Y-115686904D01*
X150142857Y-115401190D01*
X150095238Y-115305952D01*
X150047619Y-115258333D01*
X149952380Y-115210714D01*
X149809523Y-115210714D01*
X149714285Y-115258333D01*
X149666666Y-115305952D01*
X149619047Y-115401190D01*
X149619047Y-115686904D01*
X149666666Y-115782142D01*
X149714285Y-115829761D01*
X149809523Y-115877380D01*
X149952380Y-115877380D01*
X148761904Y-115877380D02*
X148761904Y-114877380D01*
X148761904Y-115829761D02*
X148857142Y-115877380D01*
X149047619Y-115877380D01*
X149142857Y-115829761D01*
X149190476Y-115782142D01*
X149238095Y-115686904D01*
X149238095Y-115401190D01*
X149190476Y-115305952D01*
X149142857Y-115258333D01*
X149047619Y-115210714D01*
X148857142Y-115210714D01*
X148761904Y-115258333D01*
X147904761Y-115829761D02*
X148000000Y-115877380D01*
X148190476Y-115877380D01*
X148285714Y-115829761D01*
X148333333Y-115734523D01*
X148333333Y-115353571D01*
X148285714Y-115258333D01*
X148190476Y-115210714D01*
X148000000Y-115210714D01*
X147904761Y-115258333D01*
X147857142Y-115353571D01*
X147857142Y-115448809D01*
X148333333Y-115544047D01*
X147428571Y-115877380D02*
X147428571Y-115210714D01*
X147428571Y-115401190D02*
X147380952Y-115305952D01*
X147333333Y-115258333D01*
X147238095Y-115210714D01*
X147142857Y-115210714D01*
X165576190Y-123852380D02*
X165576190Y-122852380D01*
X165147619Y-122947619D02*
X165100000Y-122900000D01*
X165004761Y-122852380D01*
X164766666Y-122852380D01*
X164671428Y-122900000D01*
X164623809Y-122947619D01*
X164576190Y-123042857D01*
X164576190Y-123138095D01*
X164623809Y-123280952D01*
X165195238Y-123852380D01*
X164576190Y-123852380D01*
X163576190Y-123757142D02*
X163623809Y-123804761D01*
X163766666Y-123852380D01*
X163861904Y-123852380D01*
X164004761Y-123804761D01*
X164100000Y-123709523D01*
X164147619Y-123614285D01*
X164195238Y-123423809D01*
X164195238Y-123280952D01*
X164147619Y-123090476D01*
X164100000Y-122995238D01*
X164004761Y-122900000D01*
X163861904Y-122852380D01*
X163766666Y-122852380D01*
X163623809Y-122900000D01*
X163576190Y-122947619D01*
X166195238Y-116252380D02*
X166195238Y-117061904D01*
X166147619Y-117157142D01*
X166100000Y-117204761D01*
X166004761Y-117252380D01*
X165814285Y-117252380D01*
X165719047Y-117204761D01*
X165671428Y-117157142D01*
X165623809Y-117061904D01*
X165623809Y-116252380D01*
X165195238Y-116966666D02*
X164719047Y-116966666D01*
X165290476Y-117252380D02*
X164957142Y-116252380D01*
X164623809Y-117252380D01*
X163719047Y-117252380D02*
X164052380Y-116776190D01*
X164290476Y-117252380D02*
X164290476Y-116252380D01*
X163909523Y-116252380D01*
X163814285Y-116300000D01*
X163766666Y-116347619D01*
X163719047Y-116442857D01*
X163719047Y-116585714D01*
X163766666Y-116680952D01*
X163814285Y-116728571D01*
X163909523Y-116776190D01*
X164290476Y-116776190D01*
X163433333Y-116252380D02*
X162861904Y-116252380D01*
X163147619Y-117252380D02*
X163147619Y-116252380D01*
X134503571Y-109890476D02*
X134551190Y-110033333D01*
X134598809Y-110080952D01*
X134694047Y-110128571D01*
X134836904Y-110128571D01*
X134932142Y-110080952D01*
X134979761Y-110033333D01*
X135027380Y-109938095D01*
X135027380Y-109557142D01*
X134027380Y-109557142D01*
X134027380Y-109890476D01*
X134075000Y-109985714D01*
X134122619Y-110033333D01*
X134217857Y-110080952D01*
X134313095Y-110080952D01*
X134408333Y-110033333D01*
X134455952Y-109985714D01*
X134503571Y-109890476D01*
X134503571Y-109557142D01*
X135027380Y-111128571D02*
X134551190Y-110795238D01*
X135027380Y-110557142D02*
X134027380Y-110557142D01*
X134027380Y-110938095D01*
X134075000Y-111033333D01*
X134122619Y-111080952D01*
X134217857Y-111128571D01*
X134360714Y-111128571D01*
X134455952Y-111080952D01*
X134503571Y-111033333D01*
X134551190Y-110938095D01*
X134551190Y-110557142D01*
X134741666Y-111509523D02*
X134741666Y-111985714D01*
X135027380Y-111414285D02*
X134027380Y-111747619D01*
X135027380Y-112080952D01*
X135027380Y-112414285D02*
X134027380Y-112414285D01*
X135027380Y-112985714D02*
X134455952Y-112557142D01*
X134027380Y-112985714D02*
X134598809Y-112414285D01*
X134503571Y-113414285D02*
X134503571Y-113747619D01*
X135027380Y-113890476D02*
X135027380Y-113414285D01*
X134027380Y-113414285D01*
X134027380Y-113890476D01*
X136677380Y-108961904D02*
X136201190Y-108628571D01*
X136677380Y-108390476D02*
X135677380Y-108390476D01*
X135677380Y-108771428D01*
X135725000Y-108866666D01*
X135772619Y-108914285D01*
X135867857Y-108961904D01*
X136010714Y-108961904D01*
X136105952Y-108914285D01*
X136153571Y-108866666D01*
X136201190Y-108771428D01*
X136201190Y-108390476D01*
X136153571Y-109390476D02*
X136153571Y-109723809D01*
X136677380Y-109866666D02*
X136677380Y-109390476D01*
X135677380Y-109390476D01*
X135677380Y-109866666D01*
X136629761Y-110247619D02*
X136677380Y-110390476D01*
X136677380Y-110628571D01*
X136629761Y-110723809D01*
X136582142Y-110771428D01*
X136486904Y-110819047D01*
X136391666Y-110819047D01*
X136296428Y-110771428D01*
X136248809Y-110723809D01*
X136201190Y-110628571D01*
X136153571Y-110438095D01*
X136105952Y-110342857D01*
X136058333Y-110295238D01*
X135963095Y-110247619D01*
X135867857Y-110247619D01*
X135772619Y-110295238D01*
X135725000Y-110342857D01*
X135677380Y-110438095D01*
X135677380Y-110676190D01*
X135725000Y-110819047D01*
X136677380Y-111247619D02*
X135677380Y-111247619D01*
X136629761Y-111676190D02*
X136677380Y-111819047D01*
X136677380Y-112057142D01*
X136629761Y-112152380D01*
X136582142Y-112200000D01*
X136486904Y-112247619D01*
X136391666Y-112247619D01*
X136296428Y-112200000D01*
X136248809Y-112152380D01*
X136201190Y-112057142D01*
X136153571Y-111866666D01*
X136105952Y-111771428D01*
X136058333Y-111723809D01*
X135963095Y-111676190D01*
X135867857Y-111676190D01*
X135772619Y-111723809D01*
X135725000Y-111771428D01*
X135677380Y-111866666D01*
X135677380Y-112104761D01*
X135725000Y-112247619D01*
X135677380Y-112533333D02*
X135677380Y-113104761D01*
X136677380Y-112819047D02*
X135677380Y-112819047D01*
X135677380Y-113628571D02*
X135677380Y-113819047D01*
X135725000Y-113914285D01*
X135820238Y-114009523D01*
X136010714Y-114057142D01*
X136344047Y-114057142D01*
X136534523Y-114009523D01*
X136629761Y-113914285D01*
X136677380Y-113819047D01*
X136677380Y-113628571D01*
X136629761Y-113533333D01*
X136534523Y-113438095D01*
X136344047Y-113390476D01*
X136010714Y-113390476D01*
X135820238Y-113438095D01*
X135725000Y-113533333D01*
X135677380Y-113628571D01*
X136677380Y-115057142D02*
X136201190Y-114723809D01*
X136677380Y-114485714D02*
X135677380Y-114485714D01*
X135677380Y-114866666D01*
X135725000Y-114961904D01*
X135772619Y-115009523D01*
X135867857Y-115057142D01*
X136010714Y-115057142D01*
X136105952Y-115009523D01*
X136153571Y-114961904D01*
X136201190Y-114866666D01*
X136201190Y-114485714D01*
X167696428Y-115614285D02*
X167696428Y-115280952D01*
X167172619Y-115138095D02*
X167172619Y-115614285D01*
X168172619Y-115614285D01*
X168172619Y-115138095D01*
X167172619Y-114709523D02*
X168172619Y-114709523D01*
X167172619Y-114138095D01*
X168172619Y-114138095D01*
X167267857Y-113090476D02*
X167220238Y-113138095D01*
X167172619Y-113280952D01*
X167172619Y-113376190D01*
X167220238Y-113519047D01*
X167315476Y-113614285D01*
X167410714Y-113661904D01*
X167601190Y-113709523D01*
X167744047Y-113709523D01*
X167934523Y-113661904D01*
X168029761Y-113614285D01*
X168125000Y-113519047D01*
X168172619Y-113376190D01*
X168172619Y-113280952D01*
X168125000Y-113138095D01*
X168077380Y-113090476D01*
X168172619Y-112471428D02*
X168172619Y-112280952D01*
X168125000Y-112185714D01*
X168029761Y-112090476D01*
X167839285Y-112042857D01*
X167505952Y-112042857D01*
X167315476Y-112090476D01*
X167220238Y-112185714D01*
X167172619Y-112280952D01*
X167172619Y-112471428D01*
X167220238Y-112566666D01*
X167315476Y-112661904D01*
X167505952Y-112709523D01*
X167839285Y-112709523D01*
X168029761Y-112661904D01*
X168125000Y-112566666D01*
X168172619Y-112471428D01*
X167172619Y-111614285D02*
X168172619Y-111614285D01*
X168172619Y-111376190D01*
X168125000Y-111233333D01*
X168029761Y-111138095D01*
X167934523Y-111090476D01*
X167744047Y-111042857D01*
X167601190Y-111042857D01*
X167410714Y-111090476D01*
X167315476Y-111138095D01*
X167220238Y-111233333D01*
X167172619Y-111376190D01*
X167172619Y-111614285D01*
X167696428Y-110614285D02*
X167696428Y-110280952D01*
X167172619Y-110138095D02*
X167172619Y-110614285D01*
X168172619Y-110614285D01*
X168172619Y-110138095D01*
X167172619Y-109138095D02*
X167648809Y-109471428D01*
X167172619Y-109709523D02*
X168172619Y-109709523D01*
X168172619Y-109328571D01*
X168125000Y-109233333D01*
X168077380Y-109185714D01*
X167982142Y-109138095D01*
X167839285Y-109138095D01*
X167744047Y-109185714D01*
X167696428Y-109233333D01*
X167648809Y-109328571D01*
X167648809Y-109709523D01*
X165522619Y-114328571D02*
X166522619Y-114328571D01*
X165522619Y-113852380D02*
X166522619Y-113852380D01*
X165522619Y-113280952D01*
X166522619Y-113280952D01*
X165522619Y-112804761D02*
X166522619Y-112804761D01*
X166522619Y-112423809D01*
X166475000Y-112328571D01*
X166427380Y-112280952D01*
X166332142Y-112233333D01*
X166189285Y-112233333D01*
X166094047Y-112280952D01*
X166046428Y-112328571D01*
X165998809Y-112423809D01*
X165998809Y-112804761D01*
X166522619Y-111804761D02*
X165713095Y-111804761D01*
X165617857Y-111757142D01*
X165570238Y-111709523D01*
X165522619Y-111614285D01*
X165522619Y-111423809D01*
X165570238Y-111328571D01*
X165617857Y-111280952D01*
X165713095Y-111233333D01*
X166522619Y-111233333D01*
X166522619Y-110900000D02*
X166522619Y-110328571D01*
X165522619Y-110614285D02*
X166522619Y-110614285D01*
X165440595Y-125925000D02*
X165535833Y-125877380D01*
X165678690Y-125877380D01*
X165821547Y-125925000D01*
X165916785Y-126020238D01*
X165964404Y-126115476D01*
X166012023Y-126305952D01*
X166012023Y-126448809D01*
X165964404Y-126639285D01*
X165916785Y-126734523D01*
X165821547Y-126829761D01*
X165678690Y-126877380D01*
X165583452Y-126877380D01*
X165440595Y-126829761D01*
X165392976Y-126782142D01*
X165392976Y-126448809D01*
X165583452Y-126448809D01*
X164964404Y-126877380D02*
X164964404Y-125877380D01*
X164392976Y-126877380D01*
X164392976Y-125877380D01*
X163916785Y-126877380D02*
X163916785Y-125877380D01*
X163678690Y-125877380D01*
X163535833Y-125925000D01*
X163440595Y-126020238D01*
X163392976Y-126115476D01*
X163345357Y-126305952D01*
X163345357Y-126448809D01*
X163392976Y-126639285D01*
X163440595Y-126734523D01*
X163535833Y-126829761D01*
X163678690Y-126877380D01*
X163916785Y-126877380D01*
X165440595Y-130177380D02*
X166012023Y-130177380D01*
X165726309Y-130177380D02*
X165726309Y-129177380D01*
X165821547Y-129320238D01*
X165916785Y-129415476D01*
X166012023Y-129463095D01*
X165059642Y-129272619D02*
X165012023Y-129225000D01*
X164916785Y-129177380D01*
X164678690Y-129177380D01*
X164583452Y-129225000D01*
X164535833Y-129272619D01*
X164488214Y-129367857D01*
X164488214Y-129463095D01*
X164535833Y-129605952D01*
X165107261Y-130177380D01*
X164488214Y-130177380D01*
X164202500Y-129177380D02*
X163869166Y-130177380D01*
X163535833Y-129177380D01*
X163202500Y-129796428D02*
X162440595Y-129796428D01*
X161535833Y-129510714D02*
X161535833Y-130177380D01*
X161773928Y-129129761D02*
X162012023Y-129844047D01*
X161392976Y-129844047D01*
X160869166Y-129605952D02*
X160964404Y-129558333D01*
X161012023Y-129510714D01*
X161059642Y-129415476D01*
X161059642Y-129367857D01*
X161012023Y-129272619D01*
X160964404Y-129225000D01*
X160869166Y-129177380D01*
X160678690Y-129177380D01*
X160583452Y-129225000D01*
X160535833Y-129272619D01*
X160488214Y-129367857D01*
X160488214Y-129415476D01*
X160535833Y-129510714D01*
X160583452Y-129558333D01*
X160678690Y-129605952D01*
X160869166Y-129605952D01*
X160964404Y-129653571D01*
X161012023Y-129701190D01*
X161059642Y-129796428D01*
X161059642Y-129986904D01*
X161012023Y-130082142D01*
X160964404Y-130129761D01*
X160869166Y-130177380D01*
X160678690Y-130177380D01*
X160583452Y-130129761D01*
X160535833Y-130082142D01*
X160488214Y-129986904D01*
X160488214Y-129796428D01*
X160535833Y-129701190D01*
X160583452Y-129653571D01*
X160678690Y-129605952D01*
X160202500Y-129177380D02*
X159869166Y-130177380D01*
X159535833Y-129177380D01*
X165964404Y-131827380D02*
X165964404Y-130827380D01*
X165488214Y-131827380D02*
X165488214Y-130827380D01*
X164916785Y-131827380D01*
X164916785Y-130827380D01*
X164440595Y-131827380D02*
X164440595Y-130827380D01*
X164059642Y-130827380D01*
X163964404Y-130875000D01*
X163916785Y-130922619D01*
X163869166Y-131017857D01*
X163869166Y-131160714D01*
X163916785Y-131255952D01*
X163964404Y-131303571D01*
X164059642Y-131351190D01*
X164440595Y-131351190D01*
X163440595Y-130827380D02*
X163440595Y-131636904D01*
X163392976Y-131732142D01*
X163345357Y-131779761D01*
X163250119Y-131827380D01*
X163059642Y-131827380D01*
X162964404Y-131779761D01*
X162916785Y-131732142D01*
X162869166Y-131636904D01*
X162869166Y-130827380D01*
X162535833Y-130827380D02*
X161964404Y-130827380D01*
X162250119Y-131827380D02*
X162250119Y-130827380D01*
X155119047Y-137428571D02*
X154976190Y-137476190D01*
X154928571Y-137523809D01*
X154880952Y-137619047D01*
X154880952Y-137761904D01*
X154928571Y-137857142D01*
X154976190Y-137904761D01*
X155071428Y-137952380D01*
X155452380Y-137952380D01*
X155452380Y-136952380D01*
X155119047Y-136952380D01*
X155023809Y-137000000D01*
X154976190Y-137047619D01*
X154928571Y-137142857D01*
X154928571Y-137238095D01*
X154976190Y-137333333D01*
X155023809Y-137380952D01*
X155119047Y-137428571D01*
X155452380Y-137428571D01*
X153976190Y-137952380D02*
X154452380Y-137952380D01*
X154452380Y-136952380D01*
X153642857Y-137952380D02*
X153642857Y-136952380D01*
X153404761Y-136952380D01*
X153261904Y-137000000D01*
X153166666Y-137095238D01*
X153119047Y-137190476D01*
X153071428Y-137380952D01*
X153071428Y-137523809D01*
X153119047Y-137714285D01*
X153166666Y-137809523D01*
X153261904Y-137904761D01*
X153404761Y-137952380D01*
X153642857Y-137952380D01*
X152071428Y-137857142D02*
X152119047Y-137904761D01*
X152261904Y-137952380D01*
X152357142Y-137952380D01*
X152500000Y-137904761D01*
X152595238Y-137809523D01*
X152642857Y-137714285D01*
X152690476Y-137523809D01*
X152690476Y-137380952D01*
X152642857Y-137190476D01*
X152595238Y-137095238D01*
X152500000Y-137000000D01*
X152357142Y-136952380D01*
X152261904Y-136952380D01*
X152119047Y-137000000D01*
X152071428Y-137047619D01*
X150928571Y-136904761D02*
X151785714Y-138190476D01*
X150642857Y-137904761D02*
X150500000Y-137952380D01*
X150261904Y-137952380D01*
X150166666Y-137904761D01*
X150119047Y-137857142D01*
X150071428Y-137761904D01*
X150071428Y-137666666D01*
X150119047Y-137571428D01*
X150166666Y-137523809D01*
X150261904Y-137476190D01*
X150452380Y-137428571D01*
X150547619Y-137380952D01*
X150595238Y-137333333D01*
X150642857Y-137238095D01*
X150642857Y-137142857D01*
X150595238Y-137047619D01*
X150547619Y-137000000D01*
X150452380Y-136952380D01*
X150214285Y-136952380D01*
X150071428Y-137000000D01*
X149785714Y-136952380D02*
X149214285Y-136952380D01*
X149500000Y-137952380D02*
X149500000Y-136952380D01*
X148880952Y-137428571D02*
X148547619Y-137428571D01*
X148404761Y-137952380D02*
X148880952Y-137952380D01*
X148880952Y-136952380D01*
X148404761Y-136952380D01*
X147976190Y-137952380D02*
X147976190Y-136952380D01*
X147595238Y-136952380D01*
X147500000Y-137000000D01*
X147452380Y-137047619D01*
X147404761Y-137142857D01*
X147404761Y-137285714D01*
X147452380Y-137380952D01*
X147500000Y-137428571D01*
X147595238Y-137476190D01*
X147976190Y-137476190D01*
X146976190Y-137952380D02*
X146976190Y-136952380D01*
X146595238Y-136952380D01*
X146500000Y-137000000D01*
X146452380Y-137047619D01*
X146404761Y-137142857D01*
X146404761Y-137285714D01*
X146452380Y-137380952D01*
X146500000Y-137428571D01*
X146595238Y-137476190D01*
X146976190Y-137476190D01*
X145976190Y-137428571D02*
X145642857Y-137428571D01*
X145500000Y-137952380D02*
X145976190Y-137952380D01*
X145976190Y-136952380D01*
X145500000Y-136952380D01*
X144500000Y-137952380D02*
X144833333Y-137476190D01*
X145071428Y-137952380D02*
X145071428Y-136952380D01*
X144690476Y-136952380D01*
X144595238Y-137000000D01*
X144547619Y-137047619D01*
X144500000Y-137142857D01*
X144500000Y-137285714D01*
X144547619Y-137380952D01*
X144595238Y-137428571D01*
X144690476Y-137476190D01*
X145071428Y-137476190D01*
X145580952Y-101752380D02*
X145580952Y-102561904D01*
X145533333Y-102657142D01*
X145485714Y-102704761D01*
X145390476Y-102752380D01*
X145200000Y-102752380D01*
X145104761Y-102704761D01*
X145057142Y-102657142D01*
X145009523Y-102561904D01*
X145009523Y-101752380D01*
X144580952Y-102704761D02*
X144438095Y-102752380D01*
X144200000Y-102752380D01*
X144104761Y-102704761D01*
X144057142Y-102657142D01*
X144009523Y-102561904D01*
X144009523Y-102466666D01*
X144057142Y-102371428D01*
X144104761Y-102323809D01*
X144200000Y-102276190D01*
X144390476Y-102228571D01*
X144485714Y-102180952D01*
X144533333Y-102133333D01*
X144580952Y-102038095D01*
X144580952Y-101942857D01*
X144533333Y-101847619D01*
X144485714Y-101800000D01*
X144390476Y-101752380D01*
X144152380Y-101752380D01*
X144009523Y-101800000D01*
X143247619Y-102228571D02*
X143104761Y-102276190D01*
X143057142Y-102323809D01*
X143009523Y-102419047D01*
X143009523Y-102561904D01*
X143057142Y-102657142D01*
X143104761Y-102704761D01*
X143200000Y-102752380D01*
X143580952Y-102752380D01*
X143580952Y-101752380D01*
X143247619Y-101752380D01*
X143152380Y-101800000D01*
X143104761Y-101847619D01*
X143057142Y-101942857D01*
X143057142Y-102038095D01*
X143104761Y-102133333D01*
X143152380Y-102180952D01*
X143247619Y-102228571D01*
X143580952Y-102228571D01*
X142580952Y-102371428D02*
X141819047Y-102371428D01*
X140771428Y-102657142D02*
X140819047Y-102704761D01*
X140961904Y-102752380D01*
X141057142Y-102752380D01*
X141200000Y-102704761D01*
X141295238Y-102609523D01*
X141342857Y-102514285D01*
X141390476Y-102323809D01*
X141390476Y-102180952D01*
X141342857Y-101990476D01*
X141295238Y-101895238D01*
X141200000Y-101800000D01*
X141057142Y-101752380D01*
X140961904Y-101752380D01*
X140819047Y-101800000D01*
X140771428Y-101847619D01*
D11*
X148238095Y-129004761D02*
X148095238Y-129052380D01*
X147857142Y-129052380D01*
X147761904Y-129004761D01*
X147714285Y-128957142D01*
X147666666Y-128861904D01*
X147666666Y-128766666D01*
X147714285Y-128671428D01*
X147761904Y-128623809D01*
X147857142Y-128576190D01*
X148047619Y-128528571D01*
X148142857Y-128480952D01*
X148190476Y-128433333D01*
X148238095Y-128338095D01*
X148238095Y-128242857D01*
X148190476Y-128147619D01*
X148142857Y-128100000D01*
X148047619Y-128052380D01*
X147809523Y-128052380D01*
X147666666Y-128100000D01*
X147380952Y-128052380D02*
X146809523Y-128052380D01*
X147095238Y-129052380D02*
X147095238Y-128052380D01*
X146476190Y-129052380D02*
X146476190Y-128052380D01*
X146142857Y-128766666D01*
X145809523Y-128052380D01*
X145809523Y-129052380D01*
X145428571Y-128052380D02*
X144809523Y-128052380D01*
X145142857Y-128433333D01*
X145000000Y-128433333D01*
X144904761Y-128480952D01*
X144857142Y-128528571D01*
X144809523Y-128623809D01*
X144809523Y-128861904D01*
X144857142Y-128957142D01*
X144904761Y-129004761D01*
X145000000Y-129052380D01*
X145285714Y-129052380D01*
X145380952Y-129004761D01*
X145428571Y-128957142D01*
X144428571Y-128147619D02*
X144380952Y-128100000D01*
X144285714Y-128052380D01*
X144047619Y-128052380D01*
X143952380Y-128100000D01*
X143904761Y-128147619D01*
X143857142Y-128242857D01*
X143857142Y-128338095D01*
X143904761Y-128480952D01*
X144476190Y-129052380D01*
X143857142Y-129052380D01*
X143428571Y-128671428D02*
X142666666Y-128671428D01*
X142190476Y-129052380D02*
X142190476Y-128052380D01*
X141619047Y-129052380D01*
X141619047Y-128052380D01*
X141142857Y-128528571D02*
X140809523Y-128528571D01*
X140666666Y-129052380D02*
X141142857Y-129052380D01*
X141142857Y-128052380D01*
X140666666Y-128052380D01*
X140238095Y-129052380D02*
X140238095Y-128052380D01*
X139904761Y-128766666D01*
X139571428Y-128052380D01*
X139571428Y-129052380D01*
X139142857Y-128766666D02*
X138666666Y-128766666D01*
X139238095Y-129052380D02*
X138904761Y-128052380D01*
X138571428Y-129052380D01*
X137714285Y-129052380D02*
X138285714Y-129052380D01*
X138000000Y-129052380D02*
X138000000Y-128052380D01*
X138095238Y-128195238D01*
X138190476Y-128290476D01*
X138285714Y-128338095D01*
X137380952Y-128052380D02*
X136714285Y-128052380D01*
X137142857Y-129052380D01*
X136333333Y-128671428D02*
X135571428Y-128671428D01*
X135142857Y-129004761D02*
X135000000Y-129052380D01*
X134761904Y-129052380D01*
X134666666Y-129004761D01*
X134619047Y-128957142D01*
X134571428Y-128861904D01*
X134571428Y-128766666D01*
X134619047Y-128671428D01*
X134666666Y-128623809D01*
X134761904Y-128576190D01*
X134952380Y-128528571D01*
X135047619Y-128480952D01*
X135095238Y-128433333D01*
X135142857Y-128338095D01*
X135142857Y-128242857D01*
X135095238Y-128147619D01*
X135047619Y-128100000D01*
X134952380Y-128052380D01*
X134714285Y-128052380D01*
X134571428Y-128100000D01*
X134142857Y-128528571D02*
X133809523Y-128528571D01*
X133666666Y-129052380D02*
X134142857Y-129052380D01*
X134142857Y-128052380D01*
X133666666Y-128052380D01*
X132666666Y-129052380D02*
X133000000Y-128576190D01*
X133238095Y-129052380D02*
X133238095Y-128052380D01*
X132857142Y-128052380D01*
X132761904Y-128100000D01*
X132714285Y-128147619D01*
X132666666Y-128242857D01*
X132666666Y-128385714D01*
X132714285Y-128480952D01*
X132761904Y-128528571D01*
X132857142Y-128576190D01*
X133238095Y-128576190D01*
X132380952Y-128052380D02*
X132047619Y-129052380D01*
X131714285Y-128052380D01*
X131190476Y-128052380D02*
X131000000Y-128052380D01*
X130904761Y-128100000D01*
X130809523Y-128195238D01*
X130761904Y-128385714D01*
X130761904Y-128719047D01*
X130809523Y-128909523D01*
X130904761Y-129004761D01*
X131000000Y-129052380D01*
X131190476Y-129052380D01*
X131285714Y-129004761D01*
X131380952Y-128909523D01*
X131428571Y-128719047D01*
X131428571Y-128385714D01*
X131380952Y-128195238D01*
X131285714Y-128100000D01*
X131190476Y-128052380D01*
X146357142Y-129752380D02*
X146023809Y-130752380D01*
X145690476Y-129752380D01*
X145166666Y-129752380D02*
X145071428Y-129752380D01*
X144976190Y-129800000D01*
X144928571Y-129847619D01*
X144880952Y-129942857D01*
X144833333Y-130133333D01*
X144833333Y-130371428D01*
X144880952Y-130561904D01*
X144928571Y-130657142D01*
X144976190Y-130704761D01*
X145071428Y-130752380D01*
X145166666Y-130752380D01*
X145261904Y-130704761D01*
X145309523Y-130657142D01*
X145357142Y-130561904D01*
X145404761Y-130371428D01*
X145404761Y-130133333D01*
X145357142Y-129942857D01*
X145309523Y-129847619D01*
X145261904Y-129800000D01*
X145166666Y-129752380D01*
X144404761Y-130657142D02*
X144357142Y-130704761D01*
X144404761Y-130752380D01*
X144452380Y-130704761D01*
X144404761Y-130657142D01*
X144404761Y-130752380D01*
X143404761Y-130752380D02*
X143976190Y-130752380D01*
X143690476Y-130752380D02*
X143690476Y-129752380D01*
X143785714Y-129895238D01*
X143880952Y-129990476D01*
X143976190Y-130038095D01*
X141928571Y-131133333D02*
X141976190Y-131085714D01*
X142071428Y-130942857D01*
X142119047Y-130847619D01*
X142166666Y-130704761D01*
X142214285Y-130466666D01*
X142214285Y-130276190D01*
X142166666Y-130038095D01*
X142119047Y-129895238D01*
X142071428Y-129800000D01*
X141976190Y-129657142D01*
X141928571Y-129609523D01*
X141119047Y-130704761D02*
X141214285Y-130752380D01*
X141404761Y-130752380D01*
X141500000Y-130704761D01*
X141547619Y-130657142D01*
X141595238Y-130561904D01*
X141595238Y-130276190D01*
X141547619Y-130180952D01*
X141500000Y-130133333D01*
X141404761Y-130085714D01*
X141214285Y-130085714D01*
X141119047Y-130133333D01*
X140785714Y-131133333D02*
X140738095Y-131085714D01*
X140642857Y-130942857D01*
X140595238Y-130847619D01*
X140547619Y-130704761D01*
X140500000Y-130466666D01*
X140500000Y-130276190D01*
X140547619Y-130038095D01*
X140595238Y-129895238D01*
X140642857Y-129800000D01*
X140738095Y-129657142D01*
X140785714Y-129609523D01*
X139309523Y-129847619D02*
X139261904Y-129800000D01*
X139166666Y-129752380D01*
X138928571Y-129752380D01*
X138833333Y-129800000D01*
X138785714Y-129847619D01*
X138738095Y-129942857D01*
X138738095Y-130038095D01*
X138785714Y-130180952D01*
X139357142Y-130752380D01*
X138738095Y-130752380D01*
X138119047Y-129752380D02*
X138023809Y-129752380D01*
X137928571Y-129800000D01*
X137880952Y-129847619D01*
X137833333Y-129942857D01*
X137785714Y-130133333D01*
X137785714Y-130371428D01*
X137833333Y-130561904D01*
X137880952Y-130657142D01*
X137928571Y-130704761D01*
X138023809Y-130752380D01*
X138119047Y-130752380D01*
X138214285Y-130704761D01*
X138261904Y-130657142D01*
X138309523Y-130561904D01*
X138357142Y-130371428D01*
X138357142Y-130133333D01*
X138309523Y-129942857D01*
X138261904Y-129847619D01*
X138214285Y-129800000D01*
X138119047Y-129752380D01*
X136833333Y-130752380D02*
X137404761Y-130752380D01*
X137119047Y-130752380D02*
X137119047Y-129752380D01*
X137214285Y-129895238D01*
X137309523Y-129990476D01*
X137404761Y-130038095D01*
X136357142Y-130752380D02*
X136166666Y-130752380D01*
X136071428Y-130704761D01*
X136023809Y-130657142D01*
X135928571Y-130514285D01*
X135880952Y-130323809D01*
X135880952Y-129942857D01*
X135928571Y-129847619D01*
X135976190Y-129800000D01*
X136071428Y-129752380D01*
X136261904Y-129752380D01*
X136357142Y-129800000D01*
X136404761Y-129847619D01*
X136452380Y-129942857D01*
X136452380Y-130180952D01*
X136404761Y-130276190D01*
X136357142Y-130323809D01*
X136261904Y-130371428D01*
X136071428Y-130371428D01*
X135976190Y-130323809D01*
X135928571Y-130276190D01*
X135880952Y-130180952D01*
X135452380Y-130371428D02*
X134690476Y-130371428D01*
X134023809Y-129752380D02*
X133928571Y-129752380D01*
X133833333Y-129800000D01*
X133785714Y-129847619D01*
X133738095Y-129942857D01*
X133690476Y-130133333D01*
X133690476Y-130371428D01*
X133738095Y-130561904D01*
X133785714Y-130657142D01*
X133833333Y-130704761D01*
X133928571Y-130752380D01*
X134023809Y-130752380D01*
X134119047Y-130704761D01*
X134166666Y-130657142D01*
X134214285Y-130561904D01*
X134261904Y-130371428D01*
X134261904Y-130133333D01*
X134214285Y-129942857D01*
X134166666Y-129847619D01*
X134119047Y-129800000D01*
X134023809Y-129752380D01*
X133119047Y-130180952D02*
X133214285Y-130133333D01*
X133261904Y-130085714D01*
X133309523Y-129990476D01*
X133309523Y-129942857D01*
X133261904Y-129847619D01*
X133214285Y-129800000D01*
X133119047Y-129752380D01*
X132928571Y-129752380D01*
X132833333Y-129800000D01*
X132785714Y-129847619D01*
X132738095Y-129942857D01*
X132738095Y-129990476D01*
X132785714Y-130085714D01*
X132833333Y-130133333D01*
X132928571Y-130180952D01*
X133119047Y-130180952D01*
X133214285Y-130228571D01*
X133261904Y-130276190D01*
X133309523Y-130371428D01*
X133309523Y-130561904D01*
X133261904Y-130657142D01*
X133214285Y-130704761D01*
X133119047Y-130752380D01*
X132928571Y-130752380D01*
X132833333Y-130704761D01*
X132785714Y-130657142D01*
X132738095Y-130561904D01*
X132738095Y-130371428D01*
X132785714Y-130276190D01*
X132833333Y-130228571D01*
X132928571Y-130180952D01*
X146238095Y-132452380D02*
X146238095Y-131452380D01*
X146238095Y-132404761D02*
X146333333Y-132452380D01*
X146523809Y-132452380D01*
X146619047Y-132404761D01*
X146666666Y-132357142D01*
X146714285Y-132261904D01*
X146714285Y-131976190D01*
X146666666Y-131880952D01*
X146619047Y-131833333D01*
X146523809Y-131785714D01*
X146333333Y-131785714D01*
X146238095Y-131833333D01*
X145333333Y-131785714D02*
X145333333Y-132595238D01*
X145380952Y-132690476D01*
X145428571Y-132738095D01*
X145523809Y-132785714D01*
X145666666Y-132785714D01*
X145761904Y-132738095D01*
X145333333Y-132404761D02*
X145428571Y-132452380D01*
X145619047Y-132452380D01*
X145714285Y-132404761D01*
X145761904Y-132357142D01*
X145809523Y-132261904D01*
X145809523Y-131976190D01*
X145761904Y-131880952D01*
X145714285Y-131833333D01*
X145619047Y-131785714D01*
X145428571Y-131785714D01*
X145333333Y-131833333D01*
X144428571Y-131785714D02*
X144428571Y-132452380D01*
X144857142Y-131785714D02*
X144857142Y-132309523D01*
X144809523Y-132404761D01*
X144714285Y-132452380D01*
X144571428Y-132452380D01*
X144476190Y-132404761D01*
X144428571Y-132357142D01*
X143809523Y-132452380D02*
X143904761Y-132404761D01*
X143952380Y-132309523D01*
X143952380Y-131452380D01*
X143523809Y-131785714D02*
X143285714Y-132452380D01*
X143047619Y-131785714D02*
X143285714Y-132452380D01*
X143380952Y-132690476D01*
X143428571Y-132738095D01*
X143523809Y-132785714D01*
X142238095Y-132452380D02*
X142238095Y-131928571D01*
X142285714Y-131833333D01*
X142380952Y-131785714D01*
X142571428Y-131785714D01*
X142666666Y-131833333D01*
X142238095Y-132404761D02*
X142333333Y-132452380D01*
X142571428Y-132452380D01*
X142666666Y-132404761D01*
X142714285Y-132309523D01*
X142714285Y-132214285D01*
X142666666Y-132119047D01*
X142571428Y-132071428D01*
X142333333Y-132071428D01*
X142238095Y-132023809D01*
X141809523Y-132404761D02*
X141714285Y-132452380D01*
X141523809Y-132452380D01*
X141428571Y-132404761D01*
X141380952Y-132309523D01*
X141380952Y-132261904D01*
X141428571Y-132166666D01*
X141523809Y-132119047D01*
X141666666Y-132119047D01*
X141761904Y-132071428D01*
X141809523Y-131976190D01*
X141809523Y-131928571D01*
X141761904Y-131833333D01*
X141666666Y-131785714D01*
X141523809Y-131785714D01*
X141428571Y-131833333D01*
X140333333Y-131976190D02*
X140380952Y-131928571D01*
X140476190Y-131880952D01*
X140571428Y-131880952D01*
X140666666Y-131928571D01*
X140714285Y-131976190D01*
X140761904Y-132071428D01*
X140761904Y-132166666D01*
X140714285Y-132261904D01*
X140666666Y-132309523D01*
X140571428Y-132357142D01*
X140476190Y-132357142D01*
X140380952Y-132309523D01*
X140333333Y-132261904D01*
X140333333Y-131880952D02*
X140333333Y-132261904D01*
X140285714Y-132309523D01*
X140238095Y-132309523D01*
X140142857Y-132261904D01*
X140095238Y-132166666D01*
X140095238Y-131928571D01*
X140190476Y-131785714D01*
X140333333Y-131690476D01*
X140523809Y-131642857D01*
X140714285Y-131690476D01*
X140857142Y-131785714D01*
X140952380Y-131928571D01*
X141000000Y-132119047D01*
X140952380Y-132309523D01*
X140857142Y-132452380D01*
X140714285Y-132547619D01*
X140523809Y-132595238D01*
X140333333Y-132547619D01*
X140190476Y-132452380D01*
X139666666Y-132452380D02*
X139666666Y-131785714D01*
X139666666Y-131452380D02*
X139714285Y-131500000D01*
X139666666Y-131547619D01*
X139619047Y-131500000D01*
X139666666Y-131452380D01*
X139666666Y-131547619D01*
X139190476Y-131785714D02*
X139190476Y-132452380D01*
X139190476Y-131880952D02*
X139142857Y-131833333D01*
X139047619Y-131785714D01*
X138904761Y-131785714D01*
X138809523Y-131833333D01*
X138761904Y-131928571D01*
X138761904Y-132452380D01*
X138285714Y-132452380D02*
X138285714Y-131785714D01*
X138285714Y-131976190D02*
X138238095Y-131880952D01*
X138190476Y-131833333D01*
X138095238Y-131785714D01*
X138000000Y-131785714D01*
X137523809Y-132452380D02*
X137619047Y-132404761D01*
X137666666Y-132357142D01*
X137714285Y-132261904D01*
X137714285Y-131976190D01*
X137666666Y-131880952D01*
X137619047Y-131833333D01*
X137523809Y-131785714D01*
X137380952Y-131785714D01*
X137285714Y-131833333D01*
X137238095Y-131880952D01*
X137190476Y-131976190D01*
X137190476Y-132261904D01*
X137238095Y-132357142D01*
X137285714Y-132404761D01*
X137380952Y-132452380D01*
X137523809Y-132452380D01*
X136761904Y-132452380D02*
X136761904Y-131452380D01*
X136761904Y-131833333D02*
X136666666Y-131785714D01*
X136476190Y-131785714D01*
X136380952Y-131833333D01*
X136333333Y-131880952D01*
X136285714Y-131976190D01*
X136285714Y-132261904D01*
X136333333Y-132357142D01*
X136380952Y-132404761D01*
X136476190Y-132452380D01*
X136666666Y-132452380D01*
X136761904Y-132404761D01*
X135428571Y-132404761D02*
X135523809Y-132452380D01*
X135714285Y-132452380D01*
X135809523Y-132404761D01*
X135857142Y-132357142D01*
X135904761Y-132261904D01*
X135904761Y-131976190D01*
X135857142Y-131880952D01*
X135809523Y-131833333D01*
X135714285Y-131785714D01*
X135523809Y-131785714D01*
X135428571Y-131833333D01*
X134857142Y-132452380D02*
X134952380Y-132404761D01*
X135000000Y-132357142D01*
X135047619Y-132261904D01*
X135047619Y-131976190D01*
X135000000Y-131880952D01*
X134952380Y-131833333D01*
X134857142Y-131785714D01*
X134714285Y-131785714D01*
X134619047Y-131833333D01*
X134571428Y-131880952D01*
X134523809Y-131976190D01*
X134523809Y-132261904D01*
X134571428Y-132357142D01*
X134619047Y-132404761D01*
X134714285Y-132452380D01*
X134857142Y-132452380D01*
X134095238Y-132357142D02*
X134047619Y-132404761D01*
X134095238Y-132452380D01*
X134142857Y-132404761D01*
X134095238Y-132357142D01*
X134095238Y-132452380D01*
X133190476Y-132452380D02*
X133190476Y-131452380D01*
X133190476Y-132404761D02*
X133285714Y-132452380D01*
X133476190Y-132452380D01*
X133571428Y-132404761D01*
X133619047Y-132357142D01*
X133666666Y-132261904D01*
X133666666Y-131976190D01*
X133619047Y-131880952D01*
X133571428Y-131833333D01*
X133476190Y-131785714D01*
X133285714Y-131785714D01*
X133190476Y-131833333D01*
X132333333Y-132404761D02*
X132428571Y-132452380D01*
X132619047Y-132452380D01*
X132714285Y-132404761D01*
X132761904Y-132309523D01*
X132761904Y-131928571D01*
X132714285Y-131833333D01*
X132619047Y-131785714D01*
X132428571Y-131785714D01*
X132333333Y-131833333D01*
X132285714Y-131928571D01*
X132285714Y-132023809D01*
X132761904Y-132119047D01*
D12*
G36*
X143255813Y-121782317D02*
G01*
X143190763Y-121807473D01*
X143091615Y-121857425D01*
X142949253Y-121935752D01*
X142938168Y-121941977D01*
X142807053Y-122016952D01*
X142696404Y-122082638D01*
X142617090Y-122132410D01*
X142579977Y-122159641D01*
X142578939Y-122160974D01*
X142587904Y-122198780D01*
X142629029Y-122283210D01*
X142699634Y-122409665D01*
X142797040Y-122573544D01*
X142918565Y-122770245D01*
X143061529Y-122995170D01*
X143097110Y-123050331D01*
X143189814Y-123203398D01*
X143257317Y-123335112D01*
X143293695Y-123433565D01*
X143297428Y-123453014D01*
X143295771Y-123538624D01*
X143277212Y-123674418D01*
X143244064Y-123851687D01*
X143198640Y-124061719D01*
X143143254Y-124295804D01*
X143080220Y-124545232D01*
X143011850Y-124801290D01*
X142940458Y-125055269D01*
X142868359Y-125298457D01*
X142797864Y-125522145D01*
X142731288Y-125717621D01*
X142670945Y-125876174D01*
X142628879Y-125970244D01*
X142579327Y-126070451D01*
X142532540Y-126166337D01*
X142530007Y-126171586D01*
X142452603Y-126268440D01*
X142339632Y-126333656D01*
X142208122Y-126364909D01*
X142075099Y-126359875D01*
X141957590Y-126316228D01*
X141891484Y-126258764D01*
X141796282Y-126101166D01*
X141726522Y-125904756D01*
X141688247Y-125689559D01*
X141682824Y-125567561D01*
X141704661Y-125339870D01*
X141768753Y-125151320D01*
X141878549Y-124992759D01*
X141912787Y-124957467D01*
X142014678Y-124858470D01*
X142028672Y-123458978D01*
X141850365Y-123189062D01*
X141766693Y-123066891D01*
X141686111Y-122956987D01*
X141620115Y-122874673D01*
X141591748Y-122844384D01*
X141511438Y-122769621D01*
X141402670Y-122828196D01*
X141333923Y-122870168D01*
X141296308Y-122902756D01*
X141293903Y-122908615D01*
X141268194Y-122933456D01*
X141224208Y-122951954D01*
X141181701Y-122968626D01*
X141116613Y-123000299D01*
X141023356Y-123050066D01*
X140896342Y-123121018D01*
X140729984Y-123216247D01*
X140518695Y-123338844D01*
X140403876Y-123405864D01*
X140268813Y-123486143D01*
X140180230Y-123543319D01*
X140130290Y-123584078D01*
X140111154Y-123615107D01*
X140114984Y-123643092D01*
X140118178Y-123649593D01*
X140149248Y-123690533D01*
X140215729Y-123767330D01*
X140309876Y-123871393D01*
X140423944Y-123994132D01*
X140522600Y-124098180D01*
X140749941Y-124345134D01*
X140927790Y-124559183D01*
X141057733Y-124742480D01*
X141141358Y-124897176D01*
X141169566Y-124975732D01*
X141181217Y-125044498D01*
X141193251Y-125161799D01*
X141204609Y-125314234D01*
X141214233Y-125488404D01*
X141218762Y-125598537D01*
X141225082Y-125788929D01*
X141227863Y-125928124D01*
X141226285Y-126026819D01*
X141219531Y-126095708D01*
X141206784Y-126145487D01*
X141187227Y-126186850D01*
X141171866Y-126212106D01*
X141083158Y-126309453D01*
X140968853Y-126377291D01*
X140848584Y-126406876D01*
X140758455Y-126396172D01*
X140676848Y-126349861D01*
X140574553Y-126266924D01*
X140465917Y-126161825D01*
X140365287Y-126049032D01*
X140287012Y-125943010D01*
X140258191Y-125891778D01*
X140215018Y-125821628D01*
X140136495Y-125714778D01*
X140029797Y-125579578D01*
X139902097Y-125424381D01*
X139760571Y-125257536D01*
X139612393Y-125087396D01*
X139464737Y-124922311D01*
X139324778Y-124770633D01*
X139199690Y-124640713D01*
X139101480Y-124545339D01*
X138992443Y-124450065D01*
X138900716Y-124379817D01*
X138836379Y-124341898D01*
X138815022Y-124337729D01*
X138782294Y-124354548D01*
X138700659Y-124399692D01*
X138574828Y-124470449D01*
X138409512Y-124564109D01*
X138209422Y-124677962D01*
X137979268Y-124809298D01*
X137723762Y-124955406D01*
X137447613Y-125113576D01*
X137155533Y-125281097D01*
X136852232Y-125455259D01*
X136542421Y-125633352D01*
X136230811Y-125812665D01*
X135922112Y-125990487D01*
X135621036Y-126164109D01*
X135332292Y-126330819D01*
X135060592Y-126487908D01*
X134810646Y-126632666D01*
X134587166Y-126762380D01*
X134394861Y-126874342D01*
X134238443Y-126965841D01*
X134122622Y-127034167D01*
X134052109Y-127076608D01*
X134031671Y-127089927D01*
X134059197Y-127092560D01*
X134145792Y-127095118D01*
X134288572Y-127097592D01*
X134484654Y-127099966D01*
X134731156Y-127102231D01*
X135025194Y-127104373D01*
X135363886Y-127106379D01*
X135744348Y-127108238D01*
X136163699Y-127109937D01*
X136619054Y-127111464D01*
X137107531Y-127112807D01*
X137626247Y-127113952D01*
X138172319Y-127114889D01*
X138742864Y-127115604D01*
X139335000Y-127116085D01*
X139945843Y-127116319D01*
X140202152Y-127116342D01*
X146402061Y-127116342D01*
X145959894Y-126349695D01*
X145866289Y-126187360D01*
X145745796Y-125978332D01*
X145602444Y-125729603D01*
X145440262Y-125448164D01*
X145263277Y-125141007D01*
X145075520Y-124815125D01*
X144881018Y-124477509D01*
X144683800Y-124135151D01*
X144487895Y-123795043D01*
X144438351Y-123709025D01*
X144257696Y-123395715D01*
X144085422Y-123097606D01*
X143924116Y-122819136D01*
X143776368Y-122564743D01*
X143644767Y-122338864D01*
X143531901Y-122145937D01*
X143440359Y-121990401D01*
X143372730Y-121876692D01*
X143331604Y-121809250D01*
X143320095Y-121792080D01*
X143295885Y-121778379D01*
X143255813Y-121782317D01*
X143255813Y-121782317D01*
G37*
X143255813Y-121782317D02*
X143190763Y-121807473D01*
X143091615Y-121857425D01*
X142949253Y-121935752D01*
X142938168Y-121941977D01*
X142807053Y-122016952D01*
X142696404Y-122082638D01*
X142617090Y-122132410D01*
X142579977Y-122159641D01*
X142578939Y-122160974D01*
X142587904Y-122198780D01*
X142629029Y-122283210D01*
X142699634Y-122409665D01*
X142797040Y-122573544D01*
X142918565Y-122770245D01*
X143061529Y-122995170D01*
X143097110Y-123050331D01*
X143189814Y-123203398D01*
X143257317Y-123335112D01*
X143293695Y-123433565D01*
X143297428Y-123453014D01*
X143295771Y-123538624D01*
X143277212Y-123674418D01*
X143244064Y-123851687D01*
X143198640Y-124061719D01*
X143143254Y-124295804D01*
X143080220Y-124545232D01*
X143011850Y-124801290D01*
X142940458Y-125055269D01*
X142868359Y-125298457D01*
X142797864Y-125522145D01*
X142731288Y-125717621D01*
X142670945Y-125876174D01*
X142628879Y-125970244D01*
X142579327Y-126070451D01*
X142532540Y-126166337D01*
X142530007Y-126171586D01*
X142452603Y-126268440D01*
X142339632Y-126333656D01*
X142208122Y-126364909D01*
X142075099Y-126359875D01*
X141957590Y-126316228D01*
X141891484Y-126258764D01*
X141796282Y-126101166D01*
X141726522Y-125904756D01*
X141688247Y-125689559D01*
X141682824Y-125567561D01*
X141704661Y-125339870D01*
X141768753Y-125151320D01*
X141878549Y-124992759D01*
X141912787Y-124957467D01*
X142014678Y-124858470D01*
X142028672Y-123458978D01*
X141850365Y-123189062D01*
X141766693Y-123066891D01*
X141686111Y-122956987D01*
X141620115Y-122874673D01*
X141591748Y-122844384D01*
X141511438Y-122769621D01*
X141402670Y-122828196D01*
X141333923Y-122870168D01*
X141296308Y-122902756D01*
X141293903Y-122908615D01*
X141268194Y-122933456D01*
X141224208Y-122951954D01*
X141181701Y-122968626D01*
X141116613Y-123000299D01*
X141023356Y-123050066D01*
X140896342Y-123121018D01*
X140729984Y-123216247D01*
X140518695Y-123338844D01*
X140403876Y-123405864D01*
X140268813Y-123486143D01*
X140180230Y-123543319D01*
X140130290Y-123584078D01*
X140111154Y-123615107D01*
X140114984Y-123643092D01*
X140118178Y-123649593D01*
X140149248Y-123690533D01*
X140215729Y-123767330D01*
X140309876Y-123871393D01*
X140423944Y-123994132D01*
X140522600Y-124098180D01*
X140749941Y-124345134D01*
X140927790Y-124559183D01*
X141057733Y-124742480D01*
X141141358Y-124897176D01*
X141169566Y-124975732D01*
X141181217Y-125044498D01*
X141193251Y-125161799D01*
X141204609Y-125314234D01*
X141214233Y-125488404D01*
X141218762Y-125598537D01*
X141225082Y-125788929D01*
X141227863Y-125928124D01*
X141226285Y-126026819D01*
X141219531Y-126095708D01*
X141206784Y-126145487D01*
X141187227Y-126186850D01*
X141171866Y-126212106D01*
X141083158Y-126309453D01*
X140968853Y-126377291D01*
X140848584Y-126406876D01*
X140758455Y-126396172D01*
X140676848Y-126349861D01*
X140574553Y-126266924D01*
X140465917Y-126161825D01*
X140365287Y-126049032D01*
X140287012Y-125943010D01*
X140258191Y-125891778D01*
X140215018Y-125821628D01*
X140136495Y-125714778D01*
X140029797Y-125579578D01*
X139902097Y-125424381D01*
X139760571Y-125257536D01*
X139612393Y-125087396D01*
X139464737Y-124922311D01*
X139324778Y-124770633D01*
X139199690Y-124640713D01*
X139101480Y-124545339D01*
X138992443Y-124450065D01*
X138900716Y-124379817D01*
X138836379Y-124341898D01*
X138815022Y-124337729D01*
X138782294Y-124354548D01*
X138700659Y-124399692D01*
X138574828Y-124470449D01*
X138409512Y-124564109D01*
X138209422Y-124677962D01*
X137979268Y-124809298D01*
X137723762Y-124955406D01*
X137447613Y-125113576D01*
X137155533Y-125281097D01*
X136852232Y-125455259D01*
X136542421Y-125633352D01*
X136230811Y-125812665D01*
X135922112Y-125990487D01*
X135621036Y-126164109D01*
X135332292Y-126330819D01*
X135060592Y-126487908D01*
X134810646Y-126632666D01*
X134587166Y-126762380D01*
X134394861Y-126874342D01*
X134238443Y-126965841D01*
X134122622Y-127034167D01*
X134052109Y-127076608D01*
X134031671Y-127089927D01*
X134059197Y-127092560D01*
X134145792Y-127095118D01*
X134288572Y-127097592D01*
X134484654Y-127099966D01*
X134731156Y-127102231D01*
X135025194Y-127104373D01*
X135363886Y-127106379D01*
X135744348Y-127108238D01*
X136163699Y-127109937D01*
X136619054Y-127111464D01*
X137107531Y-127112807D01*
X137626247Y-127113952D01*
X138172319Y-127114889D01*
X138742864Y-127115604D01*
X139335000Y-127116085D01*
X139945843Y-127116319D01*
X140202152Y-127116342D01*
X146402061Y-127116342D01*
X145959894Y-126349695D01*
X145866289Y-126187360D01*
X145745796Y-125978332D01*
X145602444Y-125729603D01*
X145440262Y-125448164D01*
X145263277Y-125141007D01*
X145075520Y-124815125D01*
X144881018Y-124477509D01*
X144683800Y-124135151D01*
X144487895Y-123795043D01*
X144438351Y-123709025D01*
X144257696Y-123395715D01*
X144085422Y-123097606D01*
X143924116Y-122819136D01*
X143776368Y-122564743D01*
X143644767Y-122338864D01*
X143531901Y-122145937D01*
X143440359Y-121990401D01*
X143372730Y-121876692D01*
X143331604Y-121809250D01*
X143320095Y-121792080D01*
X143295885Y-121778379D01*
X143255813Y-121782317D01*
G36*
X135924944Y-121669238D02*
G01*
X135902184Y-121707386D01*
X135851025Y-121794843D01*
X135773996Y-121927238D01*
X135673628Y-122100204D01*
X135552451Y-122309370D01*
X135412994Y-122550367D01*
X135257787Y-122818824D01*
X135089360Y-123110374D01*
X134910243Y-123420646D01*
X134726005Y-123740000D01*
X134537848Y-124066235D01*
X134357197Y-124379418D01*
X134186670Y-124675012D01*
X134028886Y-124948480D01*
X133886462Y-125195284D01*
X133762019Y-125410889D01*
X133658174Y-125590755D01*
X133577545Y-125730347D01*
X133522752Y-125825128D01*
X133496987Y-125869573D01*
X133454986Y-125944661D01*
X133432150Y-125991663D01*
X133430898Y-125999841D01*
X133458728Y-125984484D01*
X133536119Y-125940407D01*
X133659027Y-125869942D01*
X133823405Y-125775422D01*
X134025208Y-125659178D01*
X134260391Y-125523542D01*
X134524909Y-125370848D01*
X134814716Y-125203428D01*
X135125767Y-125023613D01*
X135454016Y-124833735D01*
X135578903Y-124761464D01*
X135913026Y-124568167D01*
X136231853Y-124383877D01*
X136531291Y-124210950D01*
X136807248Y-124051743D01*
X137055630Y-123908610D01*
X137272347Y-123783910D01*
X137453304Y-123679996D01*
X137594409Y-123599227D01*
X137691570Y-123543957D01*
X137740693Y-123516544D01*
X137745830Y-123513948D01*
X137730862Y-123490441D01*
X137678773Y-123427591D01*
X137594883Y-123331188D01*
X137484508Y-123207020D01*
X137352966Y-123060879D01*
X137205576Y-122898553D01*
X137047655Y-122725832D01*
X136884521Y-122548506D01*
X136721492Y-122372365D01*
X136563886Y-122203198D01*
X136417021Y-122046795D01*
X136286214Y-121908945D01*
X136176784Y-121795439D01*
X136094047Y-121712065D01*
X136065672Y-121684726D01*
X135971641Y-121596403D01*
X135924944Y-121669238D01*
X135924944Y-121669238D01*
G37*
X135924944Y-121669238D02*
X135902184Y-121707386D01*
X135851025Y-121794843D01*
X135773996Y-121927238D01*
X135673628Y-122100204D01*
X135552451Y-122309370D01*
X135412994Y-122550367D01*
X135257787Y-122818824D01*
X135089360Y-123110374D01*
X134910243Y-123420646D01*
X134726005Y-123740000D01*
X134537848Y-124066235D01*
X134357197Y-124379418D01*
X134186670Y-124675012D01*
X134028886Y-124948480D01*
X133886462Y-125195284D01*
X133762019Y-125410889D01*
X133658174Y-125590755D01*
X133577545Y-125730347D01*
X133522752Y-125825128D01*
X133496987Y-125869573D01*
X133454986Y-125944661D01*
X133432150Y-125991663D01*
X133430898Y-125999841D01*
X133458728Y-125984484D01*
X133536119Y-125940407D01*
X133659027Y-125869942D01*
X133823405Y-125775422D01*
X134025208Y-125659178D01*
X134260391Y-125523542D01*
X134524909Y-125370848D01*
X134814716Y-125203428D01*
X135125767Y-125023613D01*
X135454016Y-124833735D01*
X135578903Y-124761464D01*
X135913026Y-124568167D01*
X136231853Y-124383877D01*
X136531291Y-124210950D01*
X136807248Y-124051743D01*
X137055630Y-123908610D01*
X137272347Y-123783910D01*
X137453304Y-123679996D01*
X137594409Y-123599227D01*
X137691570Y-123543957D01*
X137740693Y-123516544D01*
X137745830Y-123513948D01*
X137730862Y-123490441D01*
X137678773Y-123427591D01*
X137594883Y-123331188D01*
X137484508Y-123207020D01*
X137352966Y-123060879D01*
X137205576Y-122898553D01*
X137047655Y-122725832D01*
X136884521Y-122548506D01*
X136721492Y-122372365D01*
X136563886Y-122203198D01*
X136417021Y-122046795D01*
X136286214Y-121908945D01*
X136176784Y-121795439D01*
X136094047Y-121712065D01*
X136065672Y-121684726D01*
X135971641Y-121596403D01*
X135924944Y-121669238D01*
G36*
X139571915Y-115371671D02*
G01*
X139525871Y-115446491D01*
X139454933Y-115565028D01*
X139362009Y-115722237D01*
X139250008Y-115913076D01*
X139121838Y-116132501D01*
X138980408Y-116375469D01*
X138828627Y-116636937D01*
X138669403Y-116911860D01*
X138505644Y-117195197D01*
X138340260Y-117481902D01*
X138176158Y-117766934D01*
X138016248Y-118045248D01*
X137863438Y-118311802D01*
X137720637Y-118561552D01*
X137590753Y-118789455D01*
X137476695Y-118990466D01*
X137381371Y-119159544D01*
X137307690Y-119291645D01*
X137258561Y-119381724D01*
X137236892Y-119424740D01*
X137236098Y-119427429D01*
X137262998Y-119463930D01*
X137337773Y-119519764D01*
X137451530Y-119589450D01*
X137595377Y-119667509D01*
X137745971Y-119741687D01*
X137950881Y-119831635D01*
X138166367Y-119912453D01*
X138399854Y-119985938D01*
X138658764Y-120053884D01*
X138950521Y-120118088D01*
X139282549Y-120180346D01*
X139662269Y-120242454D01*
X140055063Y-120300290D01*
X140396332Y-120351600D01*
X140682910Y-120402397D01*
X140921985Y-120455204D01*
X141120741Y-120512546D01*
X141286365Y-120576947D01*
X141426044Y-120650931D01*
X141546964Y-120737024D01*
X141656311Y-120837750D01*
X141691572Y-120875167D01*
X141768000Y-120962279D01*
X141824537Y-121033364D01*
X141850765Y-121075167D01*
X141851464Y-121078594D01*
X141860640Y-121099612D01*
X141892485Y-121099849D01*
X141953469Y-121076509D01*
X142050065Y-121026793D01*
X142188746Y-120947905D01*
X142285122Y-120891175D01*
X142428834Y-120802494D01*
X142540517Y-120726559D01*
X142612666Y-120668832D01*
X142637774Y-120634776D01*
X142637759Y-120634529D01*
X142622189Y-120602075D01*
X142578217Y-120520800D01*
X142508395Y-120395134D01*
X142415275Y-120229505D01*
X142301411Y-120028344D01*
X142169354Y-119796080D01*
X142021657Y-119537143D01*
X141860872Y-119255961D01*
X141689552Y-118956965D01*
X141510249Y-118644584D01*
X141325515Y-118323248D01*
X141137902Y-117997386D01*
X140949964Y-117671427D01*
X140764253Y-117349801D01*
X140583320Y-117036937D01*
X140409719Y-116737266D01*
X140246001Y-116455216D01*
X140094719Y-116195218D01*
X139958426Y-115961699D01*
X139839674Y-115759091D01*
X139741015Y-115591823D01*
X139665001Y-115464324D01*
X139614186Y-115381023D01*
X139591121Y-115346350D01*
X139590155Y-115345610D01*
X139571915Y-115371671D01*
X139571915Y-115371671D01*
G37*
X139571915Y-115371671D02*
X139525871Y-115446491D01*
X139454933Y-115565028D01*
X139362009Y-115722237D01*
X139250008Y-115913076D01*
X139121838Y-116132501D01*
X138980408Y-116375469D01*
X138828627Y-116636937D01*
X138669403Y-116911860D01*
X138505644Y-117195197D01*
X138340260Y-117481902D01*
X138176158Y-117766934D01*
X138016248Y-118045248D01*
X137863438Y-118311802D01*
X137720637Y-118561552D01*
X137590753Y-118789455D01*
X137476695Y-118990466D01*
X137381371Y-119159544D01*
X137307690Y-119291645D01*
X137258561Y-119381724D01*
X137236892Y-119424740D01*
X137236098Y-119427429D01*
X137262998Y-119463930D01*
X137337773Y-119519764D01*
X137451530Y-119589450D01*
X137595377Y-119667509D01*
X137745971Y-119741687D01*
X137950881Y-119831635D01*
X138166367Y-119912453D01*
X138399854Y-119985938D01*
X138658764Y-120053884D01*
X138950521Y-120118088D01*
X139282549Y-120180346D01*
X139662269Y-120242454D01*
X140055063Y-120300290D01*
X140396332Y-120351600D01*
X140682910Y-120402397D01*
X140921985Y-120455204D01*
X141120741Y-120512546D01*
X141286365Y-120576947D01*
X141426044Y-120650931D01*
X141546964Y-120737024D01*
X141656311Y-120837750D01*
X141691572Y-120875167D01*
X141768000Y-120962279D01*
X141824537Y-121033364D01*
X141850765Y-121075167D01*
X141851464Y-121078594D01*
X141860640Y-121099612D01*
X141892485Y-121099849D01*
X141953469Y-121076509D01*
X142050065Y-121026793D01*
X142188746Y-120947905D01*
X142285122Y-120891175D01*
X142428834Y-120802494D01*
X142540517Y-120726559D01*
X142612666Y-120668832D01*
X142637774Y-120634776D01*
X142637759Y-120634529D01*
X142622189Y-120602075D01*
X142578217Y-120520800D01*
X142508395Y-120395134D01*
X142415275Y-120229505D01*
X142301411Y-120028344D01*
X142169354Y-119796080D01*
X142021657Y-119537143D01*
X141860872Y-119255961D01*
X141689552Y-118956965D01*
X141510249Y-118644584D01*
X141325515Y-118323248D01*
X141137902Y-117997386D01*
X140949964Y-117671427D01*
X140764253Y-117349801D01*
X140583320Y-117036937D01*
X140409719Y-116737266D01*
X140246001Y-116455216D01*
X140094719Y-116195218D01*
X139958426Y-115961699D01*
X139839674Y-115759091D01*
X139741015Y-115591823D01*
X139665001Y-115464324D01*
X139614186Y-115381023D01*
X139591121Y-115346350D01*
X139590155Y-115345610D01*
X139571915Y-115371671D01*
M02*
